<?xml version="1.0" encoding="UTF-8" standalone="no"?>
<!DOCTYPE svg PUBLIC "-//W3C//DTD SVG 1.1//EN" "http://www.w3.org/Graphics/SVG/1.1/DTD/svg11.dtd">
<!-- Generated by Microsoft Visio, SVG Export page-architecture2.svg Page-1 -->
<svg xmlns="http://www.w3.org/2000/svg" xmlns:xlink="http://www.w3.org/1999/xlink" xmlns:ev="http://www.w3.org/2001/xml-events"
		width="8.5389in" height="6.65217in" viewBox="0 0 614.801 478.957" xml:space="preserve" color-interpolation-filters="sRGB"
		class="st27">
	<style type="text/css">
	<![CDATA[
		.st1 {fill:#ffffff;stroke:none;stroke-linecap:butt;stroke-width:1.40046}
		.st2 {fill:#212121;fill-opacity:0.3;stroke:none;stroke-linecap:butt;stroke-width:1.40046}
		.st3 {fill:#212121;fill-opacity:0.15;stroke:none;stroke-linecap:butt;stroke-width:1.40046}
		.st4 {fill:#6bb9f2;fill-opacity:0.5;stroke:none;stroke-linecap:butt;stroke-width:1.40046}
		.st5 {fill:url(#grad0-21);stroke:none;stroke-linecap:butt;stroke-width:1.40046}
		.st6 {fill:#e8e8e8;stroke:none;stroke-linecap:butt;stroke-width:1.40046}
		.st7 {fill:#50e6ff;stroke:none;stroke-linecap:butt;stroke-width:1.40046}
		.st8 {fill:#198ab3;stroke:none;stroke-linecap:butt;stroke-width:1.40046}
		.st9 {fill:url(#grad1-31);stroke:none;stroke-linecap:butt;stroke-width:1.40046}
		.st10 {fill:#50e6ff}
		.st11 {stroke:none;stroke-linecap:butt;stroke-width:1.40046}
		.st12 {fill:#32bedd;stroke:none;stroke-linecap:butt;stroke-width:1.40046}
		.st13 {fill:#000000;fill-opacity:0.24;stroke:none;stroke-linecap:butt;stroke-width:1.40046}
		.st14 {fill:#000000;fill-opacity:0.17;stroke:none;stroke-linecap:butt;stroke-width:1.40046}
		.st15 {fill:#ffe452;fill-opacity:0.7;stroke:none;stroke-linecap:butt;stroke-width:1.40046}
		.st16 {fill:#ffbd02;fill-opacity:0.9;stroke:none;stroke-linecap:butt;stroke-width:1.40046}
		.st17 {fill:#ffe452;fill-opacity:0.22;stroke:none;stroke-linecap:butt;stroke-width:1.40046}
		.st18 {fill:none}
		.st19 {stroke:#dfa626;stroke-linecap:butt;stroke-width:0.700229}
		.st20 {fill:#3c3c41;stroke:none;stroke-linecap:butt;stroke-width:1.40046}
		.st21 {stroke:#3c3c41;stroke-linecap:butt;stroke-width:1.40046}
		.st22 {fill:#999999;stroke:none;stroke-linecap:butt;stroke-width:1.40046}
		.st23 {fill:#2f2f2f;stroke:none;stroke-linecap:butt;stroke-width:1.40046}
		.st24 {fill:none;stroke:none;stroke-linecap:round;stroke-linejoin:round;stroke-width:0.75}
		.st25 {fill:#000000;font-family:Calibri;font-size:1.5em}
		.st26 {fill:#000000;font-family:Calibri;font-size:1.99999em;font-weight:bold}
		.st27 {fill:none;fill-rule:evenodd;font-size:12px;overflow:visible;stroke-linecap:square;stroke-miterlimit:3}
	]]>
	</style>

	<defs id="Patterns_And_Gradients">
		<linearGradient id="grad0-21" x1="0" y1="0" x2="1" y2="0" gradientTransform="rotate(0 0.5 0.5)">
			<stop offset="0" stop-color="#005ba1" stop-opacity="1"/>
			<stop offset="0.07" stop-color="#0060a9" stop-opacity="1"/>
			<stop offset="0.36" stop-color="#0071c8" stop-opacity="1"/>
			<stop offset="0.52" stop-color="#0078d4" stop-opacity="1"/>
			<stop offset="0.64" stop-color="#0074cd" stop-opacity="1"/>
			<stop offset="0.82" stop-color="#006abb" stop-opacity="1"/>
			<stop offset="1" stop-color="#005ba1" stop-opacity="1"/>
		</linearGradient>
		<radialGradient id="grad1-31" cx="1" cy="1" r="1.4">
			<stop offset="0" stop-color="#f2f2f2" stop-opacity="1"/>
			<stop offset="0.58" stop-color="#eeeeee" stop-opacity="1"/>
			<stop offset="1" stop-color="#e6e6e6" stop-opacity="1"/>
		</radialGradient>
	</defs>
	<g>
		<title>Page-1</title>
		<g id="group1-1" transform="translate(1.40046,-1.40046)">
			<title>Sheet.1</title>
			<g id="group2-2">
				<title>Shapes</title>
				<g id="shape3-3">
					<title>Sheet.3</title>
					<rect x="0" y="2.80091" width="612" height="476.156" class="st1"/>
				</g>
				<g id="group4-5" transform="translate(82.2517,-63.4968)">
					<title>Sheet.4</title>
					<g id="group5-6" transform="translate(1.40046,-1.7053E-13)">
						<title>Sheet.5</title>
						<g id="shape6-7">
							<title>Sheet.6</title>
							<rect x="0" y="115.398" width="380.983" height="363.559" class="st2"/>
						</g>
						<g id="shape7-9">
							<title>Sheet.7</title>
							<rect x="0" y="115.398" width="380.983" height="363.559" class="st3"/>
						</g>
					</g>
					<g id="group8-11" transform="translate(0,-1.40046)">
						<title>Sheet.8</title>
						<g id="shape9-12">
							<title>Sheet.9</title>
							<rect x="0" y="115.398" width="380.983" height="363.559" class="st1"/>
						</g>
						<g id="shape10-14">
							<title>Sheet.10</title>
							<rect x="0" y="115.398" width="380.983" height="363.559" class="st4"/>
						</g>
					</g>
				</g>
				<g id="group11-16" transform="translate(83.2894,-411.931)">
					<title>Sheet.11</title>
					<g id="group12-17">
						<title>Sheet.12</title>
						<g id="shape13-18">
							<title>Sheet.13</title>
							<path d="M21.15 438.24 C9.38 438.24 0 434.81 0 430.59 L0 471.3 C0 475.49 9.38 478.92 20.86 478.96 L21.15
										 478.96 C32.81 478.96 42.27 475.35 42.27 471.3 L42.27 430.59 C42.27 434.81 32.81 438.24 21.15
										 438.24 Z" class="st5"/>
						</g>
						<g id="shape14-22" transform="translate(0,-40.7141)">
							<title>Sheet.14</title>
							<path d="M42.27 471.3 C42.27 475.53 32.81 478.96 21.15 478.96 C9.49 478.96 0 475.53 0 471.3 C0 467.08
										 9.38 463.65 21.15 463.65 C32.92 463.65 42.27 467.26 42.27 471.3 Z" class="st6"/>
						</g>
						<g id="shape15-24" transform="translate(4.94502,-44.1074)">
							<title>Sheet.15</title>
							<path d="M32.41 474.08 C32.41 476.75 25.19 478.96 16.21 478.96 C7.22 478.96 0 476.75 0 474.08 C0 471.41
										 7.22 469.21 16.21 469.21 C25.19 469.21 32.41 471.38 32.41 474.08 Z" class="st7"/>
						</g>
						<g id="shape16-26" transform="translate(8.30191,-44.0332)">
							<title>Sheet.16</title>
							<path d="M12.85 475.13 C8.5 475.02 4.15 475.63 0 476.93 C4.14 478.31 8.49 478.96 12.85 478.85 C17.2 478.96
										 21.53 478.31 25.66 476.93 C21.52 475.63 17.19 475.02 12.85 475.13 Z" class="st8"/>
						</g>
						<g id="shape17-28" transform="translate(5.09627,-14.041)">
							<title>Sheet.17</title>
							<path d="M28.9 472.89 L28.9 461.78 L25.94 461.78 L25.94 475.38 L34.03 475.38 L34.03 472.89 L28.9 472.89
										 ZM5.37 467.41 C4.77 467.14 4.2 466.8 3.67 466.4 C3.41 466.1 3.27 465.71 3.28 465.31 C3.28
										 464.92 3.46 464.54 3.78 464.3 C4.2 464.03 4.69 463.91 5.19 463.94 C6.32 463.97 7.41 464.33
										 8.33 464.99 L8.33 462.06 C7.28 461.62 6.15 461.39 5.01 461.38 C3.71 461.3 2.43 461.7 1.4
										 462.5 C0.51 463.2 0 464.28 0.03 465.42 C0.14 467.28 1.39 468.87 3.17 469.43 C3.89 469.73
										 4.57 470.11 5.19 470.58 C5.5 470.86 5.68 471.25 5.7 471.66 C5.71 472.07 5.5 472.46 5.15
										 472.68 C4.73 472.96 4.22 473.1 3.71 473.07 C2.37 473.07 1.09 472.57 0.1 471.67 L0.1 474.7
										 C1.21 475.27 2.46 475.54 3.71 475.49 C5.08 475.57 6.44 475.19 7.57 474.41 C8.5 473.7 9.02
										 472.58 8.98 471.41 C9.02 470.57 8.73 469.74 8.19 469.1 C7.37 468.35 6.42 467.77 5.37 467.41
										 ZM22.33 472.64 C23.11 471.43 23.54 470.03 23.56 468.6 C23.59 467.34 23.3 466.1 22.73 464.99
										 C22.22 463.97 21.43 463.12 20.46 462.53 C19.45 461.85 18.28 461.45 17.06 461.38 C15.8 461.34
										 14.55 461.66 13.45 462.28 C12.4 462.91 11.57 463.86 11.07 464.99 C10.01 467.28 10.01 469.92
										 11.07 472.21 C11.59 473.22 12.38 474.07 13.35 474.66 C14.31 475.3 15.41 475.69 16.56 475.82
										 L19.37 478.96 L23.34 478.96 L19.41 475.35 C20.67 474.82 21.71 473.86 22.33 472.64 ZM19.27
										 471.81 C18.66 472.58 17.72 473 16.74 472.97 C15.76 473 14.84 472.55 14.25 471.77 C13.64
										 470.83 13.36 469.71 13.46 468.6 C13.4 467.45 13.74 466.31 14.43 465.38 C15.02 464.58 15.96
										 464.12 16.96 464.16 C17.94 464.12 18.88 464.58 19.45 465.38 C20.1 466.34 20.42 467.48 20.35
										 468.63 C20.41 469.77 20.08 470.89 19.41 471.81 L19.27 471.81 Z" class="st9"/>
						</g>
					</g>
					<g id="shape18-32" transform="translate(36.9609,-25.1578)">
						<title>Sheet.18</title>
						<path d="M14.22 448.46 L1.05 448.46 C0.47 448.46 0 448.93 0 449.5 L0 477.91 C0 478.49 0.47 478.96 1.05 478.96
									 L23.89 478.96 C24.47 478.96 24.94 478.49 24.94 477.91 L24.94 459.11 C24.94 458.53 24.47 458.06
									 23.89 458.06 L16.31 458.06 C15.74 458.06 15.27 457.59 15.27 457.01 L15.27 449.5 C15.27 448.93
									 14.8 448.46 14.22 448.46 Z" class="st1"/>
					</g>
					<g id="shape19-34" transform="translate(36.671,-24.9043)">
						<title>Sheet.19</title>
						<path d="M14.04 449.54 L14.04 456.76 C14.04 458.19 15.2 459.36 16.64 459.36 L23.86 459.36 L23.86 477.4 L1.59
									 477.4 L1.59 449.54 L13.93 449.54 L14.04 449.54 ZM14.44 447.99 L1.08 447.99 C0.5 447.97 0.02
									 448.42 0 449 C0 449.01 0 449.02 0 449.03 L0 477.91 C0 478.49 0.47 478.96 1.05 478.96 C1.06 478.96
									 1.07 478.96 1.08 478.96 L24.25 478.96 C24.83 478.96 25.3 478.49 25.3 477.91 L25.3 458.78 C25.27
									 458.27 24.87 457.86 24.36 457.81 L16.64 457.81 C16.06 457.81 15.59 457.34 15.59 456.76 L15.59
									 449.03 C15.59 448.46 15.12 447.99 14.55 447.99 L14.44 447.99 Z" class="st10"/>
						<path d="M14.04 449.54 L14.04 456.76 C14.04 458.19 15.2 459.36 16.64 459.36 L23.86 459.36 L23.86 477.4 L1.59
									 477.4 L1.59 449.54 L13.93 449.54M14.44 447.99 L1.08 447.99 C0.5 447.97 0.02 448.42 0 449 C0
									 449.01 0 449.02 0 449.03 L0 477.91 C0 478.49 0.47 478.96 1.05 478.96 C1.06 478.96 1.07 478.96
									 1.08 478.96 L24.25 478.96 C24.83 478.96 25.3 478.49 25.3 477.91 L25.3 458.78 C25.27 458.27 24.87
									 457.86 24.36 457.81 L16.64 457.81 C16.06 457.81 15.59 457.34 15.59 456.76 L15.59 449.03 C15.59
									 448.46 15.12 447.99 14.55 447.99 L14.44 447.99" class="st11"/>
					</g>
					<g id="shape20-37" transform="translate(51.9024,-46.0569)">
						<title>Sheet.20</title>
						<path d="M9.78 478.96 L0 469.21 L0 477.15 C0 478.13 0.79 478.94 1.77 478.96 L9.78 478.96 Z" class="st12"/>
					</g>
					<g id="shape21-39" transform="translate(42.0487,-37.3208)">
						<title>Sheet.21</title>
						<path d="M0.97 477.01 L13.75 477.01 C14.29 477.01 14.73 477.44 14.73 477.98 C14.73 478.52 14.29 478.96 13.75
									 478.96 L0.97 478.96 C0.44 478.96 0 478.52 0 477.98 C0 477.44 0.44 477.01 0.97 477.01 Z"
								class="st12"/>
					</g>
					<g id="shape22-41" transform="translate(42.0487,-34.0367)">
						<title>Sheet.22</title>
						<path d="M0.97 477.01 L13.75 477.01 C14.29 477.01 14.73 477.44 14.73 477.98 C14.73 478.52 14.29 478.96 13.75
									 478.96 L0.97 478.96 C0.44 478.96 0 478.52 0 477.98 C0 477.44 0.44 477.01 0.97 477.01 Z"
								class="st12"/>
					</g>
					<g id="shape23-43" transform="translate(42.0487,-30.8255)">
						<title>Sheet.23</title>
						<path d="M0.9 477.15 L7 477.15 C7.5 477.15 7.91 477.56 7.91 478.05 C7.91 478.55 7.5 478.96 7 478.96 L0.9
									 478.96 C0.4 478.96 0 478.55 0 478.05 C0 477.56 0.4 477.15 0.9 477.15 Z" class="st12"/>
					</g>
				</g>
				<g id="group24-45" transform="translate(112.531,-81.9828)">
					<title>Sheet.24</title>
					<g id="group25-46" transform="translate(1.40046,1.7053E-13)">
						<title>Sheet.25</title>
						<g id="shape26-47">
							<title>Sheet.26</title>
							<rect x="0" y="177.018" width="320.425" height="301.939" class="st13"/>
						</g>
						<g id="shape27-49">
							<title>Sheet.27</title>
							<rect x="0" y="177.018" width="320.425" height="301.939" class="st14"/>
						</g>
					</g>
					<g id="group28-51" transform="translate(0,-1.40046)">
						<title>Sheet.28</title>
						<g id="shape29-52">
							<title>Sheet.29</title>
							<rect x="0" y="177.018" width="320.425" height="301.939" class="st1"/>
						</g>
						<g id="shape30-54">
							<title>Sheet.30</title>
							<rect x="0" y="177.018" width="320.425" height="301.939" class="st15"/>
						</g>
					</g>
				</g>
				<g id="group31-56" transform="translate(112.531,-342.188)">
					<title>Sheet.31</title>
					<g id="shape32-57">
						<title>Sheet.32</title>
						<rect x="0" y="435.822" width="320.425" height="43.1341" class="st1"/>
					</g>
					<g id="shape33-59">
						<title>Sheet.33</title>
						<rect x="0" y="435.822" width="320.425" height="43.1341" class="st16"/>
					</g>
				</g>
				<g id="group34-61" transform="translate(112.531,-255.92)">
					<title>Sheet.34</title>
					<g id="shape35-62">
						<title>Sheet.35</title>
						<rect x="0" y="435.822" width="320.425" height="43.1341" class="st1"/>
					</g>
					<g id="shape36-64">
						<title>Sheet.36</title>
						<rect x="0" y="435.822" width="320.425" height="43.1341" class="st17"/>
					</g>
				</g>
				<g id="shape37-66" transform="translate(112.531,-83.3832)">
					<title>Sheet.37</title>
					<rect x="0" y="349.554" width="320.425" height="129.402" class="st1"/>
				</g>
				<g id="group38-68" transform="translate(317.755,-83.3832)">
					<title>Sheet.38</title>
					<g id="group39-69" transform="translate(78.0349,-5.68434E-14)">
						<title>Sheet.39</title>
						<g id="group40-70">
							<title>Sheet.40</title>
							<g id="shape41-71">
								<title>Sheet.41</title>
								<rect x="0" y="435.822" width="36.9721" height="43.1341" class="st1"/>
							</g>
							<g id="shape42-73">
								<title>Sheet.42</title>
								<rect x="0" y="435.822" width="36.9721" height="43.1341" class="st15"/>
							</g>
						</g>
						<g id="shape43-75">
							<title>Sheet.43</title>
							<path d="M36.97 435.82 L0 435.82 L0 478.96 L36.97 435.82 Z" class="st18"/>
							<path d="M36.97 435.82 L0 435.82 L0 478.96" class="st19"/>
						</g>
					</g>
					<g id="group44-78" transform="translate(39.0182,-5.68434E-14)">
						<title>Sheet.44</title>
						<g id="group45-79">
							<title>Sheet.45</title>
							<g id="shape46-80">
								<title>Sheet.46</title>
								<rect x="0" y="435.822" width="36.9721" height="43.1341" class="st1"/>
							</g>
							<g id="shape47-82">
								<title>Sheet.47</title>
								<rect x="0" y="435.822" width="36.9721" height="43.1341" class="st17"/>
							</g>
						</g>
						<g id="shape48-84">
							<title>Sheet.48</title>
							<path d="M36.97 435.82 L0 435.82 L0 478.96 L36.97 435.82 Z" class="st18"/>
							<path d="M36.97 435.82 L0 435.82 L0 478.96" class="st19"/>
						</g>
					</g>
					<g id="group49-87">
						<title>Sheet.49</title>
						<g id="group50-88">
							<title>Sheet.50</title>
							<g id="shape51-89">
								<title>Sheet.51</title>
								<rect x="0" y="435.822" width="36.9721" height="43.1341" class="st1"/>
							</g>
							<g id="shape52-91">
								<title>Sheet.52</title>
								<rect x="0" y="435.822" width="36.9721" height="43.1341" class="st15"/>
							</g>
						</g>
						<g id="shape53-93">
							<title>Sheet.53</title>
							<path d="M36.97 435.82 L0 435.82 L0 478.96 L36.97 435.82 Z" class="st18"/>
							<path d="M36.97 435.82 L0 435.82 L0 478.96" class="st19"/>
						</g>
					</g>
				</g>
				<g id="group54-96" transform="translate(434.912,-102.037)">
					<title>Sheet.54</title>
					<g id="shape55-97">
						<title>Sheet.55</title>
						<rect x="0" y="477.556" width="4.9016" height="1.40046" class="st20"/>
					</g>
					<g id="shape56-99" transform="translate(9.61274,0)">
						<title>Sheet.56</title>
						<path d="M42.4 478.96 L31.4 478.96 L31.4 477.56 L42.4 477.56 L42.4 478.96 ZM26.69 478.96 L15.7 478.96 L15.7
									 477.56 L26.69 477.56 L26.69 478.96 ZM10.99 478.96 L0 478.96 L0 477.56 L10.99 477.56 L10.99 478.96
									 Z" class="st20"/>
					</g>
					<g id="shape57-101" transform="translate(56.7185,0)">
						<title>Sheet.57</title>
						<rect x="0" y="477.556" width="4.9016" height="1.40046" class="st20"/>
					</g>
				</g>
				<g id="group58-103" transform="translate(7.58348,-316.806)">
					<title>Sheet.58</title>
					<g id="shape59-104" transform="translate(0,-5.23631)">
						<title>Sheet.59</title>
						<path d="M0 478.96 L97.41 478.96" class="st21"/>
					</g>
					<g id="shape60-107" transform="translate(95.8781,1.13687E-13)">
						<title>Sheet.60</title>
						<path d="M0 478.96 L9.07 473.72 L0 468.48 L0 478.96 Z" class="st20"/>
					</g>
				</g>
				<g id="group61-109" transform="translate(27.7095,-271.089)">
					<title>Sheet.61</title>
					<g id="shape62-110" transform="translate(0,-5.23771)">
						<title>Sheet.62</title>
						<path d="M0 478.96 L77.28 478.96" class="st21"/>
					</g>
					<g id="shape63-113" transform="translate(75.7522,0)">
						<title>Sheet.63</title>
						<path d="M0 478.96 L9.07 473.72 L0 468.48 L0 478.96 Z" class="st20"/>
					</g>
				</g>
				<g id="group64-115" transform="translate(50.2372,-228.492)">
					<title>Sheet.64</title>
					<g id="shape65-116" transform="translate(0,-5.23771)">
						<title>Sheet.65</title>
						<path d="M0 478.96 L54.76 478.96" class="st21"/>
					</g>
					<g id="shape66-119" transform="translate(53.2244,0)">
						<title>Sheet.66</title>
						<path d="M0 478.96 L9.07 473.72 L0 468.48 L0 478.96 Z" class="st20"/>
					</g>
				</g>
				<g id="shape67-121" transform="translate(7.77254,-8.20668)">
					<title>Sheet.67</title>
					<path d="M396.33 478.96 C396.33 478.96 396.32 478.96 396.32 478.96 L396.03 478.96 L396.03 477.56 L396.32 477.56
								 C396.32 477.56 396.33 477.56 396.33 477.56 C397.55 477.56 398.75 477.33 399.88 476.89 L400.39 478.2
								 C399.1 478.7 397.73 478.96 396.33 478.96 ZM391.83 478.96 L387.62 478.96 L387.62 477.56 L391.83 477.56
								 L391.83 478.96 ZM383.42 478.96 L379.22 478.96 L379.22 477.56 L383.42 477.56 L383.42 478.96 ZM375.02
								 478.96 L370.82 478.96 L370.82 477.56 L375.02 477.56 L375.02 478.96 ZM366.62 478.96 L362.42 478.96
								 L362.42 477.56 L366.62 477.56 L366.62 478.96 ZM358.21 478.96 L354.01 478.96 L354.01 477.56 L358.21
								 477.56 L358.21 478.96 ZM349.81 478.96 L345.61 478.96 L345.61 477.56 L349.81 477.56 L349.81 478.96
								 ZM341.41 478.96 L337.21 478.96 L337.21 477.56 L341.41 477.56 L341.41 478.96 ZM333.01 478.96 L328.81
								 478.96 L328.81 477.56 L333.01 477.56 L333.01 478.96 ZM324.6 478.96 L320.4 478.96 L320.4 477.56 L324.6
								 477.56 L324.6 478.96 ZM316.2 478.96 L312 478.96 L312 477.56 L316.2 477.56 L316.2 478.96 ZM307.8
								 478.96 L303.6 478.96 L303.6 477.56 L307.8 477.56 L307.8 478.96 ZM299.4 478.96 L295.19 478.96 L295.19
								 477.56 L299.4 477.56 L299.4 478.96 ZM290.99 478.96 L286.79 478.96 L286.79 477.56 L290.99 477.56
								 L290.99 478.96 ZM282.59 478.96 L278.39 478.96 L278.39 477.56 L282.59 477.56 L282.59 478.96 ZM274.19
								 478.96 L269.99 478.96 L269.99 477.56 L274.19 477.56 L274.19 478.96 ZM265.78 478.96 L261.58 478.96
								 L261.58 477.56 L265.78 477.56 L265.78 478.96 ZM257.38 478.96 L253.18 478.96 L253.18 477.56 L257.38
								 477.56 L257.38 478.96 ZM248.98 478.96 L244.78 478.96 L244.78 477.56 L248.98 477.56 L248.98 478.96
								 ZM240.58 478.96 L236.37 478.96 L236.37 477.56 L240.58 477.56 L240.58 478.96 ZM232.17 478.96 L227.97
								 478.96 L227.97 477.56 L232.17 477.56 L232.17 478.96 ZM223.77 478.96 L219.57 478.96 L219.57 477.56
								 L223.77 477.56 L223.77 478.96 ZM215.37 478.96 L211.17 478.96 L211.17 477.56 L215.37 477.56 L215.37
								 478.96 ZM206.97 478.96 L202.76 478.96 L202.76 477.56 L206.97 477.56 L206.97 478.96 ZM198.56 478.96
								 L194.36 478.96 L194.36 477.56 L198.56 477.56 L198.56 478.96 ZM190.16 478.96 L185.96 478.96 L185.96
								 477.56 L190.16 477.56 L190.16 478.96 ZM181.76 478.96 L177.56 478.96 L177.56 477.56 L181.76 477.56
								 L181.76 478.96 ZM173.35 478.96 L169.15 478.96 L169.15 477.56 L173.35 477.56 L173.35 478.96 ZM164.95
								 478.96 L160.75 478.96 L160.75 477.56 L164.95 477.56 L164.95 478.96 ZM156.55 478.96 L152.35 478.96
								 L152.35 477.56 L156.55 477.56 L156.55 478.96 ZM148.15 478.96 L143.94 478.96 L143.94 477.56 L148.15
								 477.56 L148.15 478.96 ZM139.74 478.96 L135.54 478.96 L135.54 477.56 L139.74 477.56 L139.74 478.96
								 ZM131.34 478.96 L127.14 478.96 L127.14 477.56 L131.34 477.56 L131.34 478.96 ZM122.94 478.96 L118.74
								 478.96 L118.74 477.56 L122.94 477.56 L122.94 478.96 ZM114.54 478.96 L110.33 478.96 L110.33 477.56
								 L114.54 477.56 L114.54 478.96 ZM106.13 478.96 L101.93 478.96 L101.93 477.56 L106.13 477.56 L106.13
								 478.96 ZM97.73 478.96 L93.53 478.96 L93.53 477.56 L97.73 477.56 L97.73 478.96 ZM89.33 478.96 L85.13
								 478.96 L85.13 477.56 L89.33 477.56 L89.33 478.96 ZM80.92 478.96 L76.72 478.96 L76.72 477.56 L80.92
								 477.56 L80.92 478.96 ZM72.52 478.96 L68.32 478.96 L68.32 477.56 L72.52 477.56 L72.52 478.96 ZM64.12
								 478.96 L59.92 478.96 L59.92 477.56 L64.12 477.56 L64.12 478.96 ZM55.72 478.96 L51.51 478.96 L51.51
								 477.56 L55.72 477.56 L55.72 478.96 ZM47.31 478.96 L43.11 478.96 L43.11 477.56 L47.31 477.56 L47.31
								 478.96 ZM38.91 478.96 L34.71 478.96 L34.71 477.56 L38.91 477.56 L38.91 478.96 ZM30.51 478.96 L26.31
								 478.96 L26.31 477.56 L30.51 477.56 L30.51 478.96 ZM22.1 478.96 L17.9 478.96 L17.9 477.56 L22.1 477.56
								 L22.1 478.96 ZM13.7 478.96 L11.21 478.96 C10.6 478.96 9.99 478.91 9.4 478.81 L9.62 477.43 C10.14
								 477.51 10.68 477.56 11.21 477.56 L13.7 477.56 L13.7 478.96 ZM5.23 477.23 C3.96 476.43 2.88 475.4
								 2.02 474.16 L3.16 473.36 C3.92 474.44 4.87 475.34 5.98 476.05 L5.23 477.23 ZM404.14 475.79 L403.16
								 474.78 C404.11 473.86 404.85 472.78 405.36 471.57 L406.65 472.12 C406.06 473.5 405.22 474.74 404.14
								 475.79 ZM0.24 470.08 C0.08 469.31 0 468.53 0 467.75 L0 465.75 L1.4 465.75 L1.4 467.75 C1.4 468.43
								 1.47 469.12 1.61 469.79 L0.24 470.08 ZM406.13 467.75 L406.13 463.55 L407.53 463.55 L407.53 467.75
								 L406.13 467.75 ZM1.4 461.54 L0 461.54 L0 457.34 L1.4 457.34 L1.4 461.54 ZM407.53 459.35 L406.13
								 459.35 L406.13 455.15 L407.53 455.15 L407.53 459.35 ZM1.4 453.14 L0 453.14 L0 448.94 L1.4 448.94
								 L1.4 453.14 ZM407.53 450.95 L406.13 450.95 L406.13 446.75 L407.53 446.75 L407.53 450.95 ZM1.4 444.74
								 L0 444.74 L0 440.54 L1.4 440.54 L1.4 444.74 ZM407.53 442.54 L406.13 442.54 L406.13 438.34 L407.53
								 438.34 L407.53 442.54 ZM1.4 436.34 L0 436.34 L0 432.14 L1.4 432.14 L1.4 436.34 ZM407.53 434.14 L406.13
								 434.14 L406.13 429.94 L407.53 429.94 L407.53 434.14 ZM1.4 427.93 L0 427.93 L0 423.73 L1.4 423.73
								 L1.4 427.93 ZM407.53 425.74 L406.13 425.74 L406.13 421.54 L407.53 421.54 L407.53 425.74 ZM1.4 419.53
								 L0 419.53 L0 415.33 L1.4 415.33 L1.4 419.53 ZM407.53 417.34 L406.13 417.34 L406.13 413.14 L407.53
								 413.14 L407.53 417.34 ZM1.4 411.13 L0 411.13 L0 406.93 L1.4 406.93 L1.4 411.13 ZM407.53 408.93 L406.13
								 408.93 L406.13 404.73 L407.53 404.73 L407.53 408.93 ZM1.4 402.73 L0 402.73 L0 398.52 L1.4 398.52
								 L1.4 402.73 ZM1.4 394.32 L0 394.32 L0 390.12 L1.4 390.12 L1.4 394.32 ZM1.4 385.92 L0 385.92 L0 381.72
								 L1.4 381.72 L1.4 385.92 ZM1.4 377.52 L0 377.52 L0 373.32 L1.4 373.32 L1.4 377.52 ZM1.4 369.11 L0
								 369.11 L0 364.91 L1.4 364.91 L1.4 369.11 ZM1.4 360.71 L0 360.71 L0 356.51 L1.4 356.51 L1.4 360.71
								 ZM1.4 352.31 L0 352.31 L0 348.11 L1.4 348.11 L1.4 352.31 ZM1.4 343.91 L0 343.91 L0 339.7 L1.4 339.7
								 L1.4 343.91 ZM1.4 335.5 L0 335.5 L0 331.3 L1.4 331.3 L1.4 335.5 ZM1.4 327.1 L0 327.1 L0 322.9 L1.4
								 322.9 L1.4 327.1 ZM1.4 318.7 L0 318.7 L0 314.5 L1.4 314.5 L1.4 318.7 ZM1.4 310.3 L0 310.3 L0 306.09
								 L1.4 306.09 L1.4 310.3 ZM1.4 301.89 L0 301.89 L0 297.69 L1.4 297.69 L1.4 301.89 ZM1.4 293.49 L0
								 293.49 L0 289.29 L1.4 289.29 L1.4 293.49 ZM1.4 285.09 L0 285.09 L0 280.89 L1.4 280.89 L1.4 285.09
								 ZM1.4 276.68 L0 276.68 L0 272.48 L1.4 272.48 L1.4 276.68 ZM1.4 268.28 L0 268.28 L0 264.08 L1.4 264.08
								 L1.4 268.28 ZM1.4 259.88 L0 259.88 L0 255.68 L1.4 255.68 L1.4 259.88 ZM1.4 251.48 L0 251.48 L0 247.27
								 L1.4 247.27 L1.4 251.48 ZM1.4 243.07 L0 243.07 L0 238.87 L1.4 238.87 L1.4 243.07 ZM1.4 234.67 L0
								 234.67 L0 230.47 L1.4 230.47 L1.4 234.67 ZM1.4 226.27 L0 226.27 L0 222.07 L1.4 222.07 L1.4 226.27
								 ZM1.4 217.86 L0 217.86 L0 213.66 L1.4 213.66 L1.4 217.86 ZM1.4 209.46 L0 209.46 L0 205.26 L1.4 205.26
								 L1.4 209.46 ZM1.4 201.06 L0 201.06 L0 196.86 L1.4 196.86 L1.4 201.06 ZM1.4 192.66 L0 192.66 L0 188.46
								 L1.4 188.46 L1.4 192.66 ZM1.4 184.25 L0 184.25 L0 180.05 L1.4 180.05 L1.4 184.25 ZM1.4 175.85 L0
								 175.85 L0 171.65 L1.4 171.65 L1.4 175.85 ZM1.4 167.45 L0 167.45 L0 165.25 L1.4 165.25 L1.4 167.45
								 Z" class="st22"/>
				</g>
				<g id="shape68-123" transform="translate(27.3789,-26.4126)">
					<title>Sheet.68</title>
					<path d="M337.5 478.96 L335.81 478.96 L335.81 477.56 L337.5 477.56 C338.29 477.56 339.06 477.46 339.82 477.28
								 L340.15 478.64 C339.29 478.85 338.4 478.96 337.5 478.96 ZM331.61 478.96 L327.4 478.96 L327.4 477.56
								 L331.61 477.56 L331.61 478.96 ZM323.2 478.96 L319 478.96 L319 477.56 L323.2 477.56 L323.2 478.96
								 ZM314.8 478.96 L310.6 478.96 L310.6 477.56 L314.8 477.56 L314.8 478.96 ZM306.4 478.96 L302.2 478.96
								 L302.2 477.56 L306.4 477.56 L306.4 478.96 ZM297.99 478.96 L293.79 478.96 L293.79 477.56 L297.99
								 477.56 L297.99 478.96 ZM289.59 478.96 L285.39 478.96 L285.39 477.56 L289.59 477.56 L289.59 478.96
								 ZM281.19 478.96 L276.99 478.96 L276.99 477.56 L281.19 477.56 L281.19 478.96 ZM272.79 478.96 L268.59
								 478.96 L268.59 477.56 L272.79 477.56 L272.79 478.96 ZM264.38 478.96 L260.18 478.96 L260.18 477.56
								 L264.38 477.56 L264.38 478.96 ZM255.98 478.96 L251.78 478.96 L251.78 477.56 L255.98 477.56 L255.98
								 478.96 ZM247.58 478.96 L243.38 478.96 L243.38 477.56 L247.58 477.56 L247.58 478.96 ZM239.18 478.96
								 L234.97 478.96 L234.97 477.56 L239.18 477.56 L239.18 478.96 ZM230.77 478.96 L226.57 478.96 L226.57
								 477.56 L230.77 477.56 L230.77 478.96 ZM222.37 478.96 L218.17 478.96 L218.17 477.56 L222.37 477.56
								 L222.37 478.96 ZM213.97 478.96 L209.77 478.96 L209.77 477.56 L213.97 477.56 L213.97 478.96 ZM205.56
								 478.96 L201.36 478.96 L201.36 477.56 L205.56 477.56 L205.56 478.96 ZM197.16 478.96 L192.96 478.96
								 L192.96 477.56 L197.16 477.56 L197.16 478.96 ZM188.76 478.96 L184.56 478.96 L184.56 477.56 L188.76
								 477.56 L188.76 478.96 ZM180.36 478.96 L176.16 478.96 L176.16 477.56 L180.36 477.56 L180.36 478.96
								 ZM171.95 478.96 L167.75 478.96 L167.75 477.56 L171.95 477.56 L171.95 478.96 ZM163.55 478.96 L159.35
								 478.96 L159.35 477.56 L163.55 477.56 L163.55 478.96 ZM155.15 478.96 L150.95 478.96 L150.95 477.56
								 L155.15 477.56 L155.15 478.96 ZM146.75 478.96 L142.54 478.96 L142.54 477.56 L146.75 477.56 L146.75
								 478.96 ZM138.34 478.96 L134.14 478.96 L134.14 477.56 L138.34 477.56 L138.34 478.96 ZM129.94 478.96
								 L125.74 478.96 L125.74 477.56 L129.94 477.56 L129.94 478.96 ZM121.54 478.96 L117.34 478.96 L117.34
								 477.56 L121.54 477.56 L121.54 478.96 ZM113.13 478.96 L108.93 478.96 L108.93 477.56 L113.13 477.56
								 L113.13 478.96 ZM104.73 478.96 L100.53 478.96 L100.53 477.56 L104.73 477.56 L104.73 478.96 ZM96.33
								 478.96 L92.13 478.96 L92.13 477.56 L96.33 477.56 L96.33 478.96 ZM87.93 478.96 L83.72 478.96 L83.72
								 477.56 L87.93 477.56 L87.93 478.96 ZM79.52 478.96 L75.32 478.96 L75.32 477.56 L79.52 477.56 L79.52
								 478.96 ZM71.12 478.96 L66.92 478.96 L66.92 477.56 L71.12 477.56 L71.12 478.96 ZM62.72 478.96 L58.52
								 478.96 L58.52 477.56 L62.72 477.56 L62.72 478.96 ZM54.32 478.96 L50.11 478.96 L50.11 477.56 L54.32
								 477.56 L54.32 478.96 ZM45.91 478.96 L41.71 478.96 L41.71 477.56 L45.91 477.56 L45.91 478.96 ZM37.51
								 478.96 L33.31 478.96 L33.31 477.56 L37.51 477.56 L37.51 478.96 ZM29.11 478.96 L24.91 478.96 L24.91
								 477.56 L29.11 477.56 L29.11 478.96 ZM20.7 478.96 L16.5 478.96 L16.5 477.56 L20.7 477.56 L20.7 478.96
								 ZM12.3 478.96 L11.21 478.96 C10.1 478.96 9 478.79 7.94 478.47 L8.35 477.13 C9.27 477.41 10.24 477.56
								 11.21 477.56 L12.3 477.56 L12.3 478.96 ZM344.18 476.75 L343.34 475.63 C344.4 474.84 345.28 473.87
								 345.95 472.73 L347.16 473.45 C346.39 474.74 345.39 475.85 344.18 476.75 ZM4.03 476.35 C2.87 475.39
								 1.93 474.22 1.24 472.88 L2.49 472.24 C3.09 473.41 3.91 474.43 4.93 475.28 L4.03 476.35 ZM348.62
								 469.24 L347.23 469.06 C347.29 468.63 347.31 468.19 347.31 467.75 L347.31 464.95 L348.72 464.95 L348.72
								 467.75 C348.71 468.25 348.68 468.75 348.62 469.24 ZM0.03 468.6 C0.01 468.32 0 468.03 0 467.75 L0
								 464.35 L1.4 464.35 L1.4 467.75 C1.4 468 1.41 468.25 1.43 468.49 L0.03 468.6 ZM348.71 460.75 L347.31
								 460.75 L347.31 456.55 L348.71 456.55 L348.71 460.75 ZM1.4 460.14 L0 460.14 L0 455.94 L1.4 455.94
								 L1.4 460.14 ZM348.71 452.35 L347.31 452.35 L347.31 448.15 L348.71 448.15 L348.71 452.35 ZM1.4 451.74
								 L0 451.74 L0 447.54 L1.4 447.54 L1.4 451.74 ZM348.71 443.95 L347.31 443.95 L347.31 439.74 L348.71
								 439.74 L348.71 443.95 ZM1.4 443.34 L0 443.34 L0 439.14 L1.4 439.14 L1.4 443.34 ZM348.71 435.54 L347.31
								 435.54 L347.31 431.34 L348.71 431.34 L348.71 435.54 ZM1.4 434.94 L0 434.94 L0 430.73 L1.4 430.73
								 L1.4 434.94 ZM348.71 427.14 L347.31 427.14 L347.31 422.94 L348.71 422.94 L348.71 427.14 ZM1.4 426.53
								 L0 426.53 L0 422.33 L1.4 422.33 L1.4 426.53 ZM1.4 418.13 L0 418.13 L0 413.93 L1.4 413.93 L1.4 418.13
								 ZM1.4 409.73 L0 409.73 L0 405.53 L1.4 405.53 L1.4 409.73 ZM1.4 401.32 L0 401.32 L0 397.12 L1.4 397.12
								 L1.4 401.32 ZM1.4 392.92 L0 392.92 L0 388.72 L1.4 388.72 L1.4 392.92 ZM1.4 384.52 L0 384.52 L0 380.32
								 L1.4 380.32 L1.4 384.52 ZM1.4 376.12 L0 376.12 L0 371.92 L1.4 371.92 L1.4 376.12 ZM1.4 367.71 L0
								 367.71 L0 363.51 L1.4 363.51 L1.4 367.71 ZM1.4 359.31 L0 359.31 L0 355.11 L1.4 355.11 L1.4 359.31
								 ZM1.4 350.91 L0 350.91 L0 346.71 L1.4 346.71 L1.4 350.91 ZM1.4 342.51 L0 342.51 L0 338.3 L1.4 338.3
								 L1.4 342.51 ZM1.4 334.1 L0 334.1 L0 329.9 L1.4 329.9 L1.4 334.1 ZM1.4 325.7 L0 325.7 L0 321.5 L1.4
								 321.5 L1.4 325.7 ZM1.4 317.3 L0 317.3 L0 313.1 L1.4 313.1 L1.4 317.3 ZM1.4 308.89 L0 308.89 L0 304.69
								 L1.4 304.69 L1.4 308.89 ZM1.4 300.49 L0 300.49 L0 296.29 L1.4 296.29 L1.4 300.49 ZM1.4 292.09 L0
								 292.09 L0 287.89 L1.4 287.89 L1.4 292.09 ZM1.4 283.69 L0 283.69 L0 279.49 L1.4 279.49 L1.4 283.69
								 ZM1.4 275.28 L0 275.28 L0 271.08 L1.4 271.08 L1.4 275.28 ZM1.4 266.88 L0 266.88 L0 262.68 L1.4 262.68
								 L1.4 266.88 ZM1.4 258.48 L0 258.48 L0 254.28 L1.4 254.28 L1.4 258.48 ZM1.4 250.08 L0 250.08 L0 245.87
								 L1.4 245.87 L1.4 250.08 ZM1.4 241.67 L0 241.67 L0 237.47 L1.4 237.47 L1.4 241.67 ZM1.4 233.27 L0
								 233.27 L0 229.68 L1.4 229.68 L1.4 233.27 Z" class="st22"/>
				</g>
				<g id="shape69-125" transform="translate(49.7863,-46.019)">
					<title>Sheet.69</title>
					<path d="M274.19 478.96 L269.99 478.96 L269.99 477.56 L274.19 477.56 L274.19 478.96 ZM265.78 478.96 L261.58 478.96
								 L261.58 477.56 L265.78 477.56 L265.78 478.96 ZM257.38 478.96 L253.18 478.96 L253.18 477.56 L257.38
								 477.56 L257.38 478.96 ZM248.98 478.96 L244.78 478.96 L244.78 477.56 L248.98 477.56 L248.98 478.96
								 ZM240.58 478.96 L236.37 478.96 L236.37 477.56 L240.58 477.56 L240.58 478.96 ZM232.17 478.96 L227.97
								 478.96 L227.97 477.56 L232.17 477.56 L232.17 478.96 ZM223.77 478.96 L219.57 478.96 L219.57 477.56
								 L223.77 477.56 L223.77 478.96 ZM215.37 478.96 L211.17 478.96 L211.17 477.56 L215.37 477.56 L215.37
								 478.96 ZM206.97 478.96 L202.76 478.96 L202.76 477.56 L206.97 477.56 L206.97 478.96 ZM198.56 478.96
								 L194.36 478.96 L194.36 477.56 L198.56 477.56 L198.56 478.96 ZM190.16 478.96 L185.96 478.96 L185.96
								 477.56 L190.16 477.56 L190.16 478.96 ZM181.76 478.96 L177.56 478.96 L177.56 477.56 L181.76 477.56
								 L181.76 478.96 ZM173.35 478.96 L169.15 478.96 L169.15 477.56 L173.35 477.56 L173.35 478.96 ZM164.95
								 478.96 L160.75 478.96 L160.75 477.56 L164.95 477.56 L164.95 478.96 ZM156.55 478.96 L152.35 478.96
								 L152.35 477.56 L156.55 477.56 L156.55 478.96 ZM148.15 478.96 L143.94 478.96 L143.94 477.56 L148.15
								 477.56 L148.15 478.96 ZM139.74 478.96 L135.54 478.96 L135.54 477.56 L139.74 477.56 L139.74 478.96
								 ZM131.34 478.96 L127.14 478.96 L127.14 477.56 L131.34 477.56 L131.34 478.96 ZM122.94 478.96 L118.74
								 478.96 L118.74 477.56 L122.94 477.56 L122.94 478.96 ZM114.54 478.96 L110.33 478.96 L110.33 477.56
								 L114.54 477.56 L114.54 478.96 ZM106.13 478.96 L101.93 478.96 L101.93 477.56 L106.13 477.56 L106.13
								 478.96 ZM97.73 478.96 L93.53 478.96 L93.53 477.56 L97.73 477.56 L97.73 478.96 ZM89.33 478.96 L85.13
								 478.96 L85.13 477.56 L89.33 477.56 L89.33 478.96 ZM80.92 478.96 L76.72 478.96 L76.72 477.56 L80.92
								 477.56 L80.92 478.96 ZM72.52 478.96 L68.32 478.96 L68.32 477.56 L72.52 477.56 L72.52 478.96 ZM64.12
								 478.96 L59.92 478.96 L59.92 477.56 L64.12 477.56 L64.12 478.96 ZM55.72 478.96 L51.51 478.96 L51.51
								 477.56 L55.72 477.56 L55.72 478.96 ZM47.31 478.96 L43.11 478.96 L43.11 477.56 L47.31 477.56 L47.31
								 478.96 ZM38.91 478.96 L34.71 478.96 L34.71 477.56 L38.91 477.56 L38.91 478.96 ZM30.51 478.96 L26.31
								 478.96 L26.31 477.56 L30.51 477.56 L30.51 478.96 ZM22.1 478.96 L17.9 478.96 L17.9 477.56 L22.1 477.56
								 L22.1 478.96 ZM13.7 478.96 L11.21 478.96 C10.6 478.96 9.99 478.91 9.4 478.81 L9.62 477.43 C10.14
								 477.51 10.68 477.56 11.21 477.56 L13.7 477.56 L13.7 478.96 ZM278.53 478.64 L278.2 477.28 C279.48
								 476.97 280.66 476.41 281.73 475.63 L282.56 476.75 C281.35 477.65 279.99 478.29 278.53 478.64 ZM5.23
								 477.23 C3.96 476.43 2.88 475.4 2.02 474.16 L3.16 473.36 C3.92 474.44 4.87 475.34 5.98 476.05 L5.23
								 477.23 ZM285.54 473.45 L284.33 472.73 C285 471.6 285.43 470.36 285.61 469.06 L287 469.24 C286.8
								 470.73 286.31 472.15 285.54 473.45 ZM0.24 470.08 C0.08 469.31 0 468.53 0 467.75 L0 465.75 L1.4 465.75
								 L1.4 467.75 C1.4 468.43 1.47 469.12 1.61 469.79 L0.24 470.08 ZM287.09 464.95 L285.69 464.95 L285.69
								 460.75 L287.09 460.75 L287.09 464.95 ZM1.4 461.54 L0 461.54 L0 457.34 L1.4 457.34 L1.4 461.54 ZM287.09
								 456.55 L285.69 456.55 L285.69 452.35 L287.09 452.35 L287.09 456.55 ZM1.4 453.14 L0 453.14 L0 448.94
								 L1.4 448.94 L1.4 453.14 ZM287.09 448.15 L285.69 448.15 L285.69 443.95 L287.09 443.95 L287.09 448.15
								 ZM1.4 444.74 L0 444.74 L0 440.54 L1.4 440.54 L1.4 444.74 ZM1.4 436.34 L0 436.34 L0 432.14 L1.4 432.14
								 L1.4 436.34 ZM1.4 427.93 L0 427.93 L0 423.73 L1.4 423.73 L1.4 427.93 ZM1.4 419.53 L0 419.53 L0 415.33
								 L1.4 415.33 L1.4 419.53 ZM1.4 411.13 L0 411.13 L0 406.93 L1.4 406.93 L1.4 411.13 ZM1.4 402.73 L0
								 402.73 L0 398.52 L1.4 398.52 L1.4 402.73 ZM1.4 394.32 L0 394.32 L0 390.12 L1.4 390.12 L1.4 394.32
								 ZM1.4 385.92 L0 385.92 L0 381.72 L1.4 381.72 L1.4 385.92 ZM1.4 377.52 L0 377.52 L0 373.32 L1.4 373.32
								 L1.4 377.52 ZM1.4 369.11 L0 369.11 L0 364.91 L1.4 364.91 L1.4 369.11 ZM1.4 360.71 L0 360.71 L0 356.51
								 L1.4 356.51 L1.4 360.71 ZM1.4 352.31 L0 352.31 L0 348.11 L1.4 348.11 L1.4 352.31 ZM1.4 343.91 L0
								 343.91 L0 339.7 L1.4 339.7 L1.4 343.91 ZM1.4 335.5 L0 335.5 L0 331.3 L1.4 331.3 L1.4 335.5 ZM1.4
								 327.1 L0 327.1 L0 322.9 L1.4 322.9 L1.4 327.1 ZM1.4 318.7 L0 318.7 L0 314.5 L1.4 314.5 L1.4 318.7
								 ZM1.4 310.3 L0 310.3 L0 306.09 L1.4 306.09 L1.4 310.3 ZM1.4 301.89 L0 301.89 L0 297.69 L1.4 297.69
								 L1.4 301.89 ZM1.4 293.49 L0 293.49 L0 291.3 L1.4 291.3 L1.4 293.49 Z" class="st22"/>
				</g>
			</g>
			<g id="group70-127" transform="translate(157.374,-96.2829)">
				<title>Text</title>
				<g id="group99-128" transform="translate(62.7153,-132.143)">
					<title>Sheet.99</title>
					<g id="shape100-129" transform="translate(9.14269E-14,-126.282)">
						<title>Sheet.100</title>
						<path d="M1.61 473.77 L1.61 478.96 L0 478.96 L0 465.23 L3.77 465.23 C5.24 465.23 6.38 465.58 7.18 466.3 C7.99
									 467.02 8.4 468.02 8.4 469.33 C8.4 470.63 7.95 471.69 7.05 472.52 C6.16 473.35 4.94 473.77 3.42
									 473.77 L1.61 473.77 ZM1.61 466.68 L1.61 472.31 L3.29 472.31 C4.4 472.31 5.25 472.06 5.83 471.55
									 C6.42 471.05 6.71 470.33 6.71 469.4 C6.71 467.59 5.64 466.69 3.49 466.69 L1.61 466.69 L1.61
									 466.68 Z" class="st23"/>
					</g>
					<g id="shape101-131" transform="translate(9.62395,-126.052)">
						<title>Sheet.101</title>
						<path d="M7.74 478.73 L6.17 478.73 L6.17 477.19 L6.14 477.19 C5.45 478.37 4.45 478.96 3.12 478.96 C2.14 478.96
									 1.38 478.7 0.83 478.18 C0.28 477.66 0 476.98 0 476.12 C0 474.29 1.08 473.22 3.24 472.92 L6.18
									 472.51 C6.18 470.85 5.5 470.01 4.16 470.01 C2.98 470.01 1.91 470.42 0.96 471.22 L0.96 469.61
									 C1.92 469 3.03 468.69 4.29 468.69 C6.59 468.69 7.75 469.91 7.75 472.35 L7.75 478.73 L7.74 478.73
									 ZM6.17 473.77 L3.81 474.09 C3.08 474.19 2.53 474.38 2.16 474.63 C1.79 474.89 1.61 475.35 1.61
									 476.01 C1.61 476.49 1.78 476.88 2.12 477.18 C2.46 477.48 2.92 477.63 3.48 477.63 C4.26 477.63
									 4.91 477.36 5.41 476.82 C5.92 476.27 6.17 475.58 6.17 474.74 L6.17 473.77 Z" class="st23"/>
					</g>
					<g id="shape102-133" transform="translate(19.6316,-121.668)">
						<title>Sheet.102</title>
						<path d="M9.04 473.56 C9.04 477.16 7.31 478.96 3.87 478.96 C2.65 478.96 1.59 478.73 0.69 478.27 L0.69 476.7
									 C1.79 477.31 2.85 477.62 3.85 477.62 C6.26 477.62 7.47 476.33 7.47 473.77 L7.47 472.7 L7.43
									 472.7 C6.68 473.95 5.56 474.57 4.06 474.57 C2.84 474.57 1.86 474.14 1.11 473.27 C0.37 472.39
									 0 471.22 0 469.76 C0 468.09 0.4 466.77 1.2 465.78 C2 464.8 3.1 464.31 4.49 464.31 C5.81 464.31
									 6.79 464.84 7.43 465.9 L7.47 465.9 L7.47 464.54 L9.04 464.54 L9.04 473.56 L9.04 473.56 ZM7.47
									 469.91 L7.47 468.46 C7.47 467.69 7.2 467.02 6.68 466.46 C6.15 465.91 5.49 465.63 4.71 465.63
									 C3.74 465.63 2.98 465.98 2.43 466.69 C1.88 467.39 1.61 468.38 1.61 469.65 C1.61 470.74 1.87
									 471.61 2.4 472.27 C2.92 472.92 3.62 473.25 4.49 473.25 C5.37 473.25 6.09 472.94 6.64 472.31
									 C7.19 471.69 7.47 470.89 7.47 469.91 Z" class="st23"/>
					</g>
					<g id="shape103-135" transform="translate(31.072,-126.051)">
						<title>Sheet.103</title>
						<path d="M8.55 474.22 L1.63 474.22 C1.65 475.31 1.95 476.15 2.51 476.74 C3.07 477.34 3.84 477.63 4.82 477.63
									 C5.93 477.63 6.94 477.27 7.87 476.54 L7.87 478.02 C7.01 478.64 5.87 478.96 4.45 478.96 C3.07
									 478.96 1.98 478.51 1.19 477.62 C0.4 476.73 0 475.48 0 473.86 C0 472.34 0.43 471.09 1.3 470.13
									 C2.16 469.17 3.24 468.69 4.52 468.69 C5.8 468.69 6.79 469.11 7.5 469.94 C8.2 470.77 8.55 471.92
									 8.55 473.39 L8.55 474.22 ZM6.94 472.89 C6.94 471.98 6.72 471.27 6.29 470.77 C5.86 470.27 5.26
									 470.01 4.49 470.01 C3.75 470.01 3.12 470.28 2.6 470.81 C2.09 471.34 1.77 472.03 1.65 472.88
									 L6.94 472.88 L6.94 472.89 Z" class="st23"/>
					</g>
					<g id="shape104-137" transform="translate(47.3649,-126.282)">
						<title>Sheet.104</title>
						<path d="M8.14 478.96 L6.57 478.96 L6.57 473.31 C6.57 471.27 5.81 470.24 4.29 470.24 C3.52 470.24 2.88 470.54
									 2.36 471.13 C1.83 471.72 1.57 472.48 1.57 473.4 L1.57 478.96 L0 478.96 L0 464.44 L1.57 464.44
									 L1.57 470.78 L1.61 470.78 C2.36 469.54 3.43 468.92 4.82 468.92 C7.03 468.92 8.14 470.25 8.14
									 472.92 L8.14 478.96 L8.14 478.96 Z" class="st23"/>
					</g>
					<g id="shape105-139" transform="translate(57.7437,-126.051)">
						<title>Sheet.105</title>
						<path d="M8.55 474.22 L1.63 474.22 C1.65 475.31 1.95 476.15 2.51 476.74 C3.07 477.34 3.84 477.63 4.82 477.63
									 C5.93 477.63 6.94 477.27 7.87 476.54 L7.87 478.02 C7.01 478.64 5.87 478.96 4.45 478.96 C3.07
									 478.96 1.98 478.51 1.19 477.62 C0.4 476.73 0 475.48 0 473.86 C0 472.34 0.43 471.09 1.3 470.13
									 C2.16 469.17 3.24 468.69 4.52 468.69 C5.8 468.69 6.79 469.11 7.5 469.94 C8.2 470.77 8.55 471.92
									 8.55 473.39 L8.55 474.22 ZM6.94 472.89 C6.93 471.98 6.71 471.27 6.28 470.77 C5.85 470.27 5.25
									 470.01 4.49 470.01 C3.75 470.01 3.12 470.28 2.6 470.81 C2.09 471.34 1.77 472.03 1.64 472.88
									 L6.94 472.88 L6.94 472.89 Z" class="st23"/>
					</g>
					<g id="shape106-141" transform="translate(67.8452,-126.052)">
						<title>Sheet.106</title>
						<path d="M7.74 478.73 L6.17 478.73 L6.17 477.19 L6.14 477.19 C5.45 478.37 4.45 478.96 3.12 478.96 C2.14 478.96
									 1.38 478.7 0.83 478.18 C0.28 477.66 0 476.98 0 476.12 C0 474.29 1.08 473.22 3.24 472.92 L6.18
									 472.51 C6.18 470.85 5.5 470.01 4.16 470.01 C2.98 470.01 1.91 470.42 0.96 471.22 L0.96 469.61
									 C1.92 469 3.03 468.69 4.29 468.69 C6.59 468.69 7.75 469.91 7.75 472.35 L7.75 478.73 L7.74 478.73
									 ZM6.17 473.77 L3.81 474.09 C3.08 474.19 2.53 474.38 2.16 474.63 C1.79 474.89 1.61 475.35 1.61
									 476.01 C1.61 476.49 1.78 476.88 2.12 477.18 C2.46 477.48 2.92 477.63 3.48 477.63 C4.26 477.63
									 4.91 477.36 5.41 476.82 C5.92 476.27 6.17 475.58 6.17 474.74 L6.17 473.77 Z" class="st23"/>
					</g>
					<g id="shape107-143" transform="translate(77.8514,-126.051)">
						<title>Sheet.107</title>
						<path d="M9.04 478.73 L7.47 478.73 L7.47 477.06 L7.43 477.06 C6.7 478.32 5.58 478.96 4.06 478.96 C2.83 478.96
									 1.84 478.52 1.11 477.64 C0.37 476.76 0 475.57 0 474.05 C0 472.43 0.41 471.13 1.23 470.16 C2.04
									 469.18 3.13 468.69 4.49 468.69 C5.84 468.69 6.82 469.22 7.43 470.28 L7.47 470.28 L7.47 464.21
									 L9.04 464.21 L9.04 478.73 ZM7.47 474.29 L7.47 472.85 C7.47 472.06 7.21 471.39 6.68 470.84 C6.16
									 470.29 5.49 470.01 4.69 470.01 C3.73 470.01 2.98 470.36 2.43 471.07 C1.88 471.77 1.61 472.74
									 1.61 473.98 C1.61 475.11 1.87 476 2.4 476.65 C2.92 477.31 3.63 477.63 4.52 477.63 C5.39 477.63
									 6.1 477.32 6.65 476.69 C7.19 476.05 7.47 475.26 7.47 474.29 Z" class="st23"/>
					</g>
					<g id="shape108-145" transform="translate(89.2946,-126.051)">
						<title>Sheet.108</title>
						<path d="M8.55 474.22 L1.63 474.22 C1.65 475.31 1.95 476.15 2.51 476.74 C3.07 477.34 3.84 477.63 4.82 477.63
									 C5.93 477.63 6.94 477.27 7.87 476.54 L7.87 478.02 C7.01 478.64 5.87 478.96 4.45 478.96 C3.07
									 478.96 1.98 478.51 1.19 477.62 C0.4 476.73 0 475.48 0 473.86 C0 472.34 0.43 471.09 1.3 470.13
									 C2.16 469.17 3.24 468.69 4.52 468.69 C5.8 468.69 6.79 469.11 7.5 469.94 C8.2 470.77 8.55 471.92
									 8.55 473.39 L8.55 474.22 ZM6.94 472.89 C6.93 471.98 6.71 471.27 6.28 470.77 C5.85 470.27 5.25
									 470.01 4.49 470.01 C3.75 470.01 3.12 470.28 2.6 470.81 C2.09 471.34 1.77 472.03 1.64 472.88
									 L6.94 472.88 L6.94 472.89 Z" class="st23"/>
					</g>
					<g id="shape109-147" transform="translate(100.199,-126.282)">
						<title>Sheet.109</title>
						<path d="M5.11 470.74 C4.84 470.53 4.44 470.43 3.93 470.43 C3.25 470.43 2.7 470.74 2.24 471.37 C1.79 472.01
									 1.57 472.87 1.57 473.96 L1.57 478.96 L0 478.96 L0 469.15 L1.57 469.15 L1.57 471.17 L1.61 471.17
									 C1.83 470.48 2.17 469.95 2.63 469.56 C3.09 469.17 3.6 468.98 4.17 468.98 C4.58 468.98 4.89 469.02
									 5.11 469.11 L5.11 470.74 L5.11 470.74 Z" class="st23"/>
					</g>
					<g id="shape110-149" transform="translate(6.74881,-84.2683)">
						<title>Sheet.110</title>
						<path d="M0 478.96 L0 465.23 L3.79 465.23 C8.63 465.23 11.05 467.46 11.05 471.92 C11.05 474.04 10.38 475.74
									 9.03 477.03 C7.69 478.31 5.89 478.96 3.64 478.96 L0 478.96 L0 478.96 ZM1.61 466.68 L1.61 477.5
									 L3.66 477.5 C5.46 477.5 6.86 477.02 7.86 476.06 C8.86 475.09 9.36 473.73 9.36 471.96 C9.36 468.44
									 7.49 466.68 3.75 466.68 L1.61 466.68 Z" class="st23"/>
					</g>
					<g id="shape111-151" transform="translate(19.3403,-84.0387)">
						<title>Sheet.111</title>
						<path d="M7.74 478.73 L6.17 478.73 L6.17 477.19 L6.14 477.19 C5.45 478.37 4.45 478.96 3.12 478.96 C2.14 478.96
									 1.38 478.7 0.83 478.18 C0.28 477.66 0 476.98 0 476.12 C0 474.29 1.08 473.22 3.24 472.92 L6.18
									 472.51 C6.18 470.85 5.5 470.01 4.16 470.01 C2.98 470.01 1.91 470.42 0.96 471.22 L0.96 469.61
									 C1.92 469 3.03 468.69 4.29 468.69 C6.59 468.69 7.75 469.91 7.75 472.35 L7.75 478.73 L7.74 478.73
									 ZM6.17 473.77 L3.81 474.09 C3.08 474.19 2.53 474.38 2.16 474.63 C1.79 474.89 1.61 475.35 1.61
									 476.01 C1.61 476.49 1.78 476.88 2.12 477.18 C2.46 477.48 2.92 477.63 3.48 477.63 C4.26 477.63
									 4.91 477.36 5.41 476.82 C5.92 476.27 6.17 475.58 6.17 474.74 L6.17 473.77 Z" class="st23"/>
					</g>
					<g id="shape112-153" transform="translate(28.722,-84.0569)">
						<title>Sheet.112</title>
						<path d="M5.73 478.65 C5.36 478.85 4.87 478.96 4.26 478.96 C2.54 478.96 1.68 478 1.68 476.08 L1.68 470.28
									 L0 470.28 L0 468.94 L1.68 468.94 L1.68 466.55 L3.25 466.04 L3.25 468.94 L5.73 468.94 L5.73 470.28
									 L3.25 470.28 L3.25 475.81 C3.25 476.46 3.37 476.93 3.59 477.21 C3.81 477.49 4.18 477.63 4.7
									 477.63 C5.1 477.63 5.44 477.53 5.72 477.31 L5.72 478.65 L5.73 478.65 Z" class="st23"/>
					</g>
					<g id="shape113-155" transform="translate(35.9722,-84.0387)">
						<title>Sheet.113</title>
						<path d="M7.74 478.73 L6.17 478.73 L6.17 477.19 L6.14 477.19 C5.45 478.37 4.45 478.96 3.12 478.96 C2.14 478.96
									 1.38 478.7 0.83 478.18 C0.28 477.66 0 476.98 0 476.12 C0 474.29 1.08 473.22 3.24 472.92 L6.18
									 472.51 C6.18 470.85 5.5 470.01 4.16 470.01 C2.98 470.01 1.91 470.42 0.96 471.22 L0.96 469.61
									 C1.92 469 3.03 468.69 4.29 468.69 C6.59 468.69 7.75 469.91 7.75 472.35 L7.75 478.73 L7.74 478.73
									 ZM6.17 473.77 L3.81 474.09 C3.08 474.19 2.53 474.38 2.16 474.63 C1.79 474.89 1.61 475.35 1.61
									 476.01 C1.61 476.49 1.78 476.88 2.12 477.18 C2.46 477.48 2.92 477.63 3.48 477.63 C4.26 477.63
									 4.91 477.36 5.41 476.82 C5.92 476.27 6.17 475.58 6.17 474.74 L6.17 473.77 Z" class="st23"/>
					</g>
					<g id="shape114-157" transform="translate(52.0424,-84.2683)">
						<title>Sheet.114</title>
						<path d="M5.11 470.74 C4.84 470.53 4.44 470.43 3.93 470.43 C3.25 470.43 2.7 470.74 2.24 471.37 C1.79 472.01
									 1.57 472.87 1.57 473.96 L1.57 478.96 L0 478.96 L0 469.15 L1.57 469.15 L1.57 471.17 L1.61 471.17
									 C1.83 470.48 2.17 469.95 2.63 469.56 C3.09 469.17 3.6 468.98 4.17 468.98 C4.58 468.98 4.89 469.02
									 5.11 469.11 L5.11 470.74 L5.11 470.74 Z" class="st23"/>
					</g>
					<g id="shape115-159" transform="translate(58.1904,-84.0387)">
						<title>Sheet.115</title>
						<path d="M4.77 478.96 C3.32 478.96 2.16 478.5 1.3 477.58 C0.43 476.67 0 475.45 0 473.94 C0 472.29 0.45 471.01
									 1.35 470.08 C2.25 469.16 3.47 468.69 5 468.69 C6.46 468.69 7.6 469.14 8.42 470.04 C9.24 470.94
									 9.65 472.19 9.65 473.79 C9.65 475.35 9.21 476.6 8.32 477.54 C7.44 478.49 6.25 478.96 4.77 478.96
									 ZM4.88 470.02 C3.87 470.02 3.08 470.36 2.49 471.05 C1.9 471.73 1.61 472.68 1.61 473.88 C1.61
									 475.05 1.9 475.96 2.5 476.63 C3.09 477.3 3.89 477.64 4.88 477.64 C5.9 477.64 6.68 477.31 7.22
									 476.65 C7.77 475.99 8.04 475.06 8.04 473.85 C8.04 472.62 7.77 471.68 7.22 471.01 C6.68 470.35
									 5.9 470.02 4.88 470.02 Z" class="st23"/>
					</g>
					<g id="shape116-161" transform="translate(68.7975,-84.2683)">
						<title>Sheet.116</title>
						<path d="M13.71 469.15 L10.77 478.96 L9.14 478.96 L7.12 471.94 C7.04 471.67 6.99 471.37 6.97 471.03 L6.93
									 471.03 C6.91 471.26 6.84 471.56 6.73 471.92 L4.54 478.96 L2.97 478.96 L0 469.15 L1.65 469.15
									 L3.68 476.53 C3.74 476.75 3.79 477.04 3.81 477.41 L3.89 477.41 C3.91 477.12 3.96 476.83 4.06
									 476.51 L6.32 469.15 L7.75 469.15 L9.78 476.54 C9.85 476.78 9.9 477.07 9.93 477.42 L10 477.42
									 C10.02 477.18 10.07 476.88 10.17 476.54 L12.16 469.15 L13.71 469.15 Z" class="st23"/>
					</g>
					<g id="shape117-163" transform="translate(90.2903,-84.2683)">
						<title>Sheet.117</title>
						<path d="M4.75 478.96 L3.18 478.96 L3.18 467.09 C3.06 467.22 2.88 467.36 2.65 467.51 C2.41 467.67 2.15 467.82
									 1.86 467.98 C1.57 468.13 1.26 468.27 0.94 468.41 C0.62 468.54 0.31 468.65 0 468.72 L0 467.13
									 C0.34 467.04 0.71 466.91 1.1 466.75 C1.48 466.58 1.86 466.4 2.24 466.2 C2.61 466 2.96 465.79
									 3.29 465.57 C3.62 465.35 3.91 465.13 4.15 464.92 L4.75 464.92 L4.75 478.96 Z" class="st23"/>
					</g>
					<g id="shape118-165" transform="translate(6.74881,-42.2546)">
						<title>Sheet.118</title>
						<path d="M0 478.96 L0 465.23 L3.79 465.23 C8.63 465.23 11.05 467.46 11.05 471.92 C11.05 474.04 10.38 475.74
									 9.03 477.03 C7.69 478.31 5.89 478.96 3.64 478.96 L0 478.96 L0 478.96 ZM1.61 466.68 L1.61 477.5
									 L3.66 477.5 C5.46 477.5 6.86 477.02 7.86 476.06 C8.86 475.09 9.36 473.73 9.36 471.96 C9.36 468.44
									 7.49 466.68 3.75 466.68 L1.61 466.68 Z" class="st23"/>
					</g>
					<g id="shape119-167" transform="translate(19.3403,-42.0249)">
						<title>Sheet.119</title>
						<path d="M7.74 478.73 L6.17 478.73 L6.17 477.19 L6.14 477.19 C5.45 478.37 4.45 478.96 3.12 478.96 C2.14 478.96
									 1.38 478.7 0.83 478.18 C0.28 477.66 0 476.98 0 476.12 C0 474.29 1.08 473.22 3.24 472.92 L6.18
									 472.51 C6.18 470.85 5.5 470.01 4.16 470.01 C2.98 470.01 1.91 470.42 0.96 471.22 L0.96 469.61
									 C1.92 469 3.03 468.69 4.29 468.69 C6.59 468.69 7.75 469.91 7.75 472.35 L7.75 478.73 L7.74 478.73
									 ZM6.17 473.77 L3.81 474.09 C3.08 474.19 2.53 474.38 2.16 474.63 C1.79 474.89 1.61 475.35 1.61
									 476.01 C1.61 476.49 1.78 476.88 2.12 477.18 C2.46 477.48 2.92 477.63 3.48 477.63 C4.26 477.63
									 4.91 477.36 5.41 476.82 C5.92 476.27 6.17 475.58 6.17 474.74 L6.17 473.77 Z" class="st23"/>
					</g>
					<g id="shape120-169" transform="translate(28.722,-42.0431)">
						<title>Sheet.120</title>
						<path d="M5.73 478.65 C5.36 478.85 4.87 478.96 4.26 478.96 C2.54 478.96 1.68 478 1.68 476.08 L1.68 470.28
									 L0 470.28 L0 468.94 L1.68 468.94 L1.68 466.55 L3.25 466.04 L3.25 468.94 L5.73 468.94 L5.73 470.28
									 L3.25 470.28 L3.25 475.81 C3.25 476.46 3.37 476.93 3.59 477.21 C3.81 477.49 4.18 477.63 4.7
									 477.63 C5.1 477.63 5.44 477.53 5.72 477.31 L5.72 478.65 L5.73 478.65 Z" class="st23"/>
					</g>
					<g id="shape121-171" transform="translate(35.9722,-42.0249)">
						<title>Sheet.121</title>
						<path d="M7.74 478.73 L6.17 478.73 L6.17 477.19 L6.14 477.19 C5.45 478.37 4.45 478.96 3.12 478.96 C2.14 478.96
									 1.38 478.7 0.83 478.18 C0.28 477.66 0 476.98 0 476.12 C0 474.29 1.08 473.22 3.24 472.92 L6.18
									 472.51 C6.18 470.85 5.5 470.01 4.16 470.01 C2.98 470.01 1.91 470.42 0.96 471.22 L0.96 469.61
									 C1.92 469 3.03 468.69 4.29 468.69 C6.59 468.69 7.75 469.91 7.75 472.35 L7.75 478.73 L7.74 478.73
									 ZM6.17 473.77 L3.81 474.09 C3.08 474.19 2.53 474.38 2.16 474.63 C1.79 474.89 1.61 475.35 1.61
									 476.01 C1.61 476.49 1.78 476.88 2.12 477.18 C2.46 477.48 2.92 477.63 3.48 477.63 C4.26 477.63
									 4.91 477.36 5.41 476.82 C5.92 476.27 6.17 475.58 6.17 474.74 L6.17 473.77 Z" class="st23"/>
					</g>
					<g id="shape122-173" transform="translate(52.0424,-42.2546)">
						<title>Sheet.122</title>
						<path d="M5.11 470.74 C4.84 470.53 4.44 470.43 3.93 470.43 C3.25 470.43 2.7 470.74 2.24 471.37 C1.79 472.01
									 1.57 472.87 1.57 473.96 L1.57 478.96 L0 478.96 L0 469.15 L1.57 469.15 L1.57 471.17 L1.61 471.17
									 C1.83 470.48 2.17 469.95 2.63 469.56 C3.09 469.17 3.6 468.98 4.17 468.98 C4.58 468.98 4.89 469.02
									 5.11 469.11 L5.11 470.74 L5.11 470.74 Z" class="st23"/>
					</g>
					<g id="shape123-175" transform="translate(58.1904,-42.0249)">
						<title>Sheet.123</title>
						<path d="M4.77 478.96 C3.32 478.96 2.16 478.5 1.3 477.58 C0.43 476.67 0 475.45 0 473.94 C0 472.29 0.45 471.01
									 1.35 470.08 C2.25 469.16 3.47 468.69 5 468.69 C6.46 468.69 7.6 469.14 8.42 470.04 C9.24 470.94
									 9.65 472.19 9.65 473.79 C9.65 475.35 9.21 476.6 8.32 477.54 C7.44 478.49 6.25 478.96 4.77 478.96
									 ZM4.88 470.02 C3.87 470.02 3.08 470.36 2.49 471.05 C1.9 471.73 1.61 472.68 1.61 473.88 C1.61
									 475.05 1.9 475.96 2.5 476.63 C3.09 477.3 3.89 477.64 4.88 477.64 C5.9 477.64 6.68 477.31 7.22
									 476.65 C7.77 475.99 8.04 475.06 8.04 473.85 C8.04 472.62 7.77 471.68 7.22 471.01 C6.68 470.35
									 5.9 470.02 4.88 470.02 Z" class="st23"/>
					</g>
					<g id="shape124-177" transform="translate(68.7975,-42.2546)">
						<title>Sheet.124</title>
						<path d="M13.71 469.15 L10.77 478.96 L9.14 478.96 L7.12 471.94 C7.04 471.67 6.99 471.37 6.97 471.03 L6.93
									 471.03 C6.91 471.26 6.84 471.56 6.73 471.92 L4.54 478.96 L2.97 478.96 L0 469.15 L1.65 469.15
									 L3.68 476.53 C3.74 476.75 3.79 477.04 3.81 477.41 L3.89 477.41 C3.91 477.12 3.96 476.83 4.06
									 476.51 L6.32 469.15 L7.75 469.15 L9.78 476.54 C9.85 476.78 9.9 477.07 9.93 477.42 L10 477.42
									 C10.02 477.18 10.07 476.88 10.17 476.54 L12.16 469.15 L13.71 469.15 Z" class="st23"/>
					</g>
					<g id="shape125-179" transform="translate(89.1489,-42.2546)">
						<title>Sheet.125</title>
						<path d="M6.35 468.83 C6.35 468.41 6.28 468.04 6.15 467.73 C6.02 467.42 5.84 467.15 5.62 466.95 C5.39 466.74
									 5.12 466.58 4.82 466.48 C4.51 466.38 4.18 466.33 3.82 466.33 C3.51 466.33 3.21 466.37 2.92 466.45
									 C2.63 466.54 2.34 466.65 2.06 466.8 C1.79 466.95 1.52 467.12 1.26 467.33 C1 467.53 0.76 467.76
									 0.54 468 L0.54 466.32 C0.98 465.89 1.47 465.57 2.02 465.34 C2.56 465.11 3.23 465 4.01 465 C4.57
									 465 5.09 465.08 5.57 465.24 C6.05 465.4 6.46 465.64 6.82 465.95 C7.17 466.27 7.44 466.65 7.64
									 467.11 C7.84 467.57 7.94 468.1 7.94 468.69 C7.94 469.23 7.88 469.73 7.76 470.17 C7.63 470.61
									 7.45 471.02 7.19 471.41 C6.94 471.8 6.62 472.17 6.24 472.53 C5.86 472.89 5.41 473.25 4.89 473.62
									 C4.25 474.08 3.72 474.48 3.3 474.8 C2.88 475.13 2.55 475.43 2.3 475.72 C2.06 476 1.89 476.28
									 1.79 476.57 C1.69 476.85 1.64 477.18 1.64 477.55 L8.47 477.55 L8.47 478.96 L0 478.96 L0 478.28
									 C0 477.69 0.06 477.17 0.19 476.73 C0.32 476.28 0.53 475.86 0.82 475.45 C1.12 475.05 1.5 474.65
									 1.98 474.25 C2.45 473.85 3.03 473.39 3.73 472.89 C4.22 472.53 4.64 472.19 4.97 471.86 C5.31
									 471.54 5.58 471.21 5.78 470.89 C5.99 470.56 6.13 470.23 6.22 469.9 C6.3 469.56 6.35 469.21 6.35
									 468.83 Z" class="st23"/>
					</g>
					<g id="shape126-181" transform="translate(6.74881,-0.240879)">
						<title>Sheet.126</title>
						<path d="M0 478.96 L0 465.23 L3.79 465.23 C8.63 465.23 11.05 467.46 11.05 471.92 C11.05 474.04 10.38 475.74
									 9.03 477.03 C7.69 478.31 5.89 478.96 3.64 478.96 L0 478.96 L0 478.96 ZM1.61 466.68 L1.61 477.5
									 L3.66 477.5 C5.46 477.5 6.86 477.02 7.86 476.06 C8.86 475.09 9.36 473.73 9.36 471.96 C9.36 468.44
									 7.49 466.68 3.75 466.68 L1.61 466.68 Z" class="st23"/>
					</g>
					<g id="shape127-183" transform="translate(19.3403,-0.0112037)">
						<title>Sheet.127</title>
						<path d="M7.74 478.73 L6.17 478.73 L6.17 477.19 L6.14 477.19 C5.45 478.37 4.45 478.96 3.12 478.96 C2.14 478.96
									 1.38 478.7 0.83 478.18 C0.28 477.66 0 476.98 0 476.12 C0 474.29 1.08 473.22 3.24 472.92 L6.18
									 472.51 C6.18 470.85 5.5 470.01 4.16 470.01 C2.98 470.01 1.91 470.42 0.96 471.22 L0.96 469.61
									 C1.92 469 3.03 468.69 4.29 468.69 C6.59 468.69 7.75 469.91 7.75 472.35 L7.75 478.73 L7.74 478.73
									 ZM6.17 473.77 L3.81 474.09 C3.08 474.19 2.53 474.38 2.16 474.63 C1.79 474.89 1.61 475.35 1.61
									 476.01 C1.61 476.49 1.78 476.88 2.12 477.18 C2.46 477.48 2.92 477.63 3.48 477.63 C4.26 477.63
									 4.91 477.36 5.41 476.82 C5.92 476.27 6.17 475.58 6.17 474.74 L6.17 473.77 Z" class="st23"/>
					</g>
					<g id="shape128-185" transform="translate(28.722,-0.0294096)">
						<title>Sheet.128</title>
						<path d="M5.73 478.65 C5.36 478.85 4.87 478.96 4.26 478.96 C2.54 478.96 1.68 478 1.68 476.08 L1.68 470.28
									 L0 470.28 L0 468.94 L1.68 468.94 L1.68 466.55 L3.25 466.04 L3.25 468.94 L5.73 468.94 L5.73 470.28
									 L3.25 470.28 L3.25 475.81 C3.25 476.46 3.37 476.93 3.59 477.21 C3.81 477.49 4.18 477.63 4.7
									 477.63 C5.1 477.63 5.44 477.53 5.72 477.31 L5.72 478.65 L5.73 478.65 Z" class="st23"/>
					</g>
					<g id="shape129-187" transform="translate(35.9722,-0.0112037)">
						<title>Sheet.129</title>
						<path d="M7.74 478.73 L6.17 478.73 L6.17 477.19 L6.14 477.19 C5.45 478.37 4.45 478.96 3.12 478.96 C2.14 478.96
									 1.38 478.7 0.83 478.18 C0.28 477.66 0 476.98 0 476.12 C0 474.29 1.08 473.22 3.24 472.92 L6.18
									 472.51 C6.18 470.85 5.5 470.01 4.16 470.01 C2.98 470.01 1.91 470.42 0.96 471.22 L0.96 469.61
									 C1.92 469 3.03 468.69 4.29 468.69 C6.59 468.69 7.75 469.91 7.75 472.35 L7.75 478.73 L7.74 478.73
									 ZM6.17 473.77 L3.81 474.09 C3.08 474.19 2.53 474.38 2.16 474.63 C1.79 474.89 1.61 475.35 1.61
									 476.01 C1.61 476.49 1.78 476.88 2.12 477.18 C2.46 477.48 2.92 477.63 3.48 477.63 C4.26 477.63
									 4.91 477.36 5.41 476.82 C5.92 476.27 6.17 475.58 6.17 474.74 L6.17 473.77 Z" class="st23"/>
					</g>
					<g id="shape130-189" transform="translate(52.0424,-0.240879)">
						<title>Sheet.130</title>
						<path d="M5.11 470.74 C4.84 470.53 4.44 470.43 3.93 470.43 C3.25 470.43 2.7 470.74 2.24 471.37 C1.79 472.01
									 1.57 472.87 1.57 473.96 L1.57 478.96 L0 478.96 L0 469.15 L1.57 469.15 L1.57 471.17 L1.61 471.17
									 C1.83 470.48 2.17 469.95 2.63 469.56 C3.09 469.17 3.6 468.98 4.17 468.98 C4.58 468.98 4.89 469.02
									 5.11 469.11 L5.11 470.74 L5.11 470.74 Z" class="st23"/>
					</g>
					<g id="shape131-191" transform="translate(58.1904,-0.0112037)">
						<title>Sheet.131</title>
						<path d="M4.77 478.96 C3.32 478.96 2.16 478.5 1.3 477.58 C0.43 476.67 0 475.45 0 473.94 C0 472.29 0.45 471.01
									 1.35 470.08 C2.25 469.16 3.47 468.69 5 468.69 C6.46 468.69 7.6 469.14 8.42 470.04 C9.24 470.94
									 9.65 472.19 9.65 473.79 C9.65 475.35 9.21 476.6 8.32 477.54 C7.44 478.49 6.25 478.96 4.77 478.96
									 ZM4.88 470.02 C3.87 470.02 3.08 470.36 2.49 471.05 C1.9 471.73 1.61 472.68 1.61 473.88 C1.61
									 475.05 1.9 475.96 2.5 476.63 C3.09 477.3 3.89 477.64 4.88 477.64 C5.9 477.64 6.68 477.31 7.22
									 476.65 C7.77 475.99 8.04 475.06 8.04 473.85 C8.04 472.62 7.77 471.68 7.22 471.01 C6.68 470.35
									 5.9 470.02 4.88 470.02 Z" class="st23"/>
					</g>
					<g id="shape132-193" transform="translate(68.7975,-0.240879)">
						<title>Sheet.132</title>
						<path d="M13.71 469.15 L10.77 478.96 L9.14 478.96 L7.12 471.94 C7.04 471.67 6.99 471.37 6.97 471.03 L6.93
									 471.03 C6.91 471.26 6.84 471.56 6.73 471.92 L4.54 478.96 L2.97 478.96 L0 469.15 L1.65 469.15
									 L3.68 476.53 C3.74 476.75 3.79 477.04 3.81 477.41 L3.89 477.41 C3.91 477.12 3.96 476.83 4.06
									 476.51 L6.32 469.15 L7.75 469.15 L9.78 476.54 C9.85 476.78 9.9 477.07 9.93 477.42 L10 477.42
									 C10.02 477.18 10.07 476.88 10.17 476.54 L12.16 469.15 L13.71 469.15 Z" class="st23"/>
					</g>
					<g id="shape133-195" transform="translate(89.2834,1.13687E-13)">
						<title>Sheet.133</title>
						<path d="M7.95 474.83 C7.95 475.45 7.83 476.01 7.6 476.52 C7.36 477.03 7.03 477.46 6.61 477.82 C6.19 478.18
									 5.68 478.46 5.08 478.66 C4.49 478.86 3.84 478.96 3.12 478.96 C1.81 478.96 0.77 478.71 0 478.21
									 L0 476.53 C0.93 477.25 1.98 477.62 3.18 477.62 C3.66 477.62 4.09 477.56 4.48 477.43 C4.86 477.31
									 5.19 477.14 5.47 476.91 C5.75 476.68 5.96 476.4 6.11 476.07 C6.26 475.75 6.34 475.38 6.34 474.97
									 C6.34 473.18 5.06 472.28 2.51 472.28 L1.37 472.28 L1.37 470.95 L2.45 470.95 C4.71 470.95 5.84
									 470.11 5.84 468.43 C5.84 466.87 4.98 466.09 3.26 466.09 C2.29 466.09 1.38 466.41 0.53 467.07
									 L0.53 465.54 C1.4 465.02 2.44 464.76 3.65 464.76 C4.22 464.76 4.74 464.84 5.21 465 C5.67 465.16
									 6.08 465.38 6.41 465.67 C6.74 465.96 6.99 466.3 7.18 466.7 C7.36 467.1 7.45 467.55 7.45 468.03
									 C7.45 469.84 6.54 471 4.71 471.52 L4.71 471.55 C5.18 471.61 5.61 471.72 6 471.89 C6.4 472.07
									 6.74 472.3 7.03 472.58 C7.31 472.86 7.54 473.19 7.7 473.57 C7.86 473.95 7.95 474.37 7.95 474.83
									 Z" class="st23"/>
					</g>
				</g>
				<g id="group134-197" transform="translate(71.4794,-62.8946)">
					<title>Sheet.134</title>
					<g id="shape135-198" transform="translate(-4.89608E-14,-4.50807)">
						<title>Sheet.135</title>
						<path d="M6.97 466.68 L1.61 466.68 L1.61 471.43 L6.57 471.43 L6.57 472.88 L1.61 472.88 L1.61 478.96 L0 478.96
									 L0 465.23 L6.97 465.23 L6.97 466.68 L6.97 466.68 Z" class="st23"/>
					</g>
					<g id="shape136-200" transform="translate(8.84109,-4.50807)">
						<title>Sheet.136</title>
						<path d="M5.11 470.74 C4.84 470.53 4.44 470.43 3.93 470.43 C3.25 470.43 2.7 470.74 2.24 471.37 C1.79 472.01
									 1.57 472.87 1.57 473.96 L1.57 478.96 L0 478.96 L0 469.15 L1.57 469.15 L1.57 471.17 L1.61 471.17
									 C1.83 470.48 2.17 469.95 2.63 469.56 C3.09 469.17 3.6 468.98 4.17 468.98 C4.58 468.98 4.89 469.02
									 5.11 469.11 L5.11 470.74 L5.11 470.74 Z" class="st23"/>
					</g>
					<g id="shape137-202" transform="translate(14.9891,-4.277)">
						<title>Sheet.137</title>
						<path d="M8.55 474.22 L1.63 474.22 C1.65 475.31 1.95 476.15 2.51 476.74 C3.07 477.34 3.84 477.63 4.82 477.63
									 C5.93 477.63 6.94 477.27 7.87 476.54 L7.87 478.02 C7.01 478.64 5.87 478.96 4.45 478.96 C3.07
									 478.96 1.98 478.51 1.19 477.62 C0.4 476.73 0 475.48 0 473.86 C0 472.34 0.43 471.09 1.3 470.13
									 C2.16 469.17 3.24 468.69 4.52 468.69 C5.8 468.69 6.79 469.11 7.5 469.94 C8.2 470.77 8.55 471.92
									 8.55 473.39 L8.55 474.22 ZM6.94 472.89 C6.94 471.98 6.72 471.27 6.29 470.77 C5.86 470.27 5.26
									 470.01 4.49 470.01 C3.75 470.01 3.12 470.28 2.6 470.81 C2.09 471.34 1.77 472.03 1.65 472.88
									 L6.94 472.88 L6.94 472.89 Z" class="st23"/>
					</g>
					<g id="shape138-204" transform="translate(25.2853,-4.277)">
						<title>Sheet.138</title>
						<path d="M8.55 474.22 L1.63 474.22 C1.65 475.31 1.95 476.15 2.51 476.74 C3.07 477.34 3.84 477.63 4.82 477.63
									 C5.93 477.63 6.94 477.27 7.87 476.54 L7.87 478.02 C7.01 478.64 5.87 478.96 4.45 478.96 C3.07
									 478.96 1.98 478.51 1.19 477.62 C0.4 476.73 0 475.48 0 473.86 C0 472.34 0.43 471.09 1.3 470.13
									 C2.16 469.17 3.24 468.69 4.52 468.69 C5.8 468.69 6.79 469.11 7.5 469.94 C8.2 470.77 8.55 471.92
									 8.55 473.39 L8.55 474.22 ZM6.94 472.89 C6.94 471.98 6.72 471.27 6.29 470.77 C5.86 470.27 5.26
									 470.01 4.49 470.01 C3.75 470.01 3.12 470.28 2.6 470.81 C2.09 471.34 1.77 472.03 1.65 472.88
									 L6.94 472.88 L6.94 472.89 Z" class="st23"/>
					</g>
					<g id="shape139-206" transform="translate(40.9858,-4.2784)">
						<title>Sheet.139</title>
						<path d="M0 478.37 L0 476.69 C0.86 477.32 1.8 477.64 2.82 477.64 C4.2 477.64 4.89 477.18 4.89 476.26 C4.89
									 476 4.83 475.77 4.72 475.59 C4.6 475.41 4.44 475.25 4.24 475.11 C4.04 474.97 3.8 474.84 3.53
									 474.73 C3.26 474.62 2.97 474.5 2.65 474.38 C2.22 474.21 1.84 474.04 1.51 473.86 C1.18 473.68
									 0.91 473.48 0.69 473.27 C0.47 473.05 0.3 472.79 0.19 472.51 C0.08 472.23 0.02 471.9 0.02 471.53
									 C0.02 471.07 0.13 470.66 0.34 470.31 C0.55 469.95 0.83 469.65 1.18 469.42 C1.53 469.18 1.93
									 469 2.38 468.87 C2.83 468.75 3.3 468.69 3.78 468.69 C4.62 468.69 5.38 468.84 6.05 469.13 L6.05
									 470.72 C5.33 470.25 4.5 470.01 3.57 470.01 C3.27 470.01 3.01 470.05 2.77 470.11 C2.54 470.18
									 2.33 470.28 2.16 470.4 C1.99 470.52 1.86 470.66 1.77 470.83 C1.68 471 1.63 471.19 1.63 471.39
									 C1.63 471.65 1.68 471.86 1.77 472.03 C1.86 472.21 2 472.36 2.18 472.49 C2.36 472.63 2.58 472.75
									 2.83 472.86 C3.09 472.97 3.38 473.08 3.7 473.21 C4.14 473.38 4.52 473.55 4.87 473.72 C5.21 473.9
									 5.51 474.1 5.75 474.32 C5.99 474.54 6.18 474.79 6.31 475.08 C6.44 475.37 6.51 475.71 6.51 476.1
									 C6.51 476.59 6.4 477.01 6.19 477.37 C5.97 477.72 5.69 478.02 5.33 478.26 C4.97 478.49 4.56 478.67
									 4.09 478.78 C3.63 478.9 3.14 478.96 2.63 478.96 C1.61 478.96 0.74 478.76 0 478.37 Z"
								class="st23"/>
					</g>
					<g id="shape140-208" transform="translate(49.705,-1.13687E-13)">
						<title>Sheet.140</title>
						<path d="M1.61 473.03 L1.57 473.03 L1.57 478.96 L0 478.96 L0 464.64 L1.57 464.64 L1.57 466.37 L1.61 466.37
									 C2.38 465.06 3.51 464.41 5 464.41 C6.26 464.41 7.25 464.85 7.95 465.73 C8.66 466.61 9.02 467.78
									 9.02 469.26 C9.02 470.9 8.62 472.21 7.82 473.2 C7.02 474.18 5.93 474.68 4.55 474.68 C3.28 474.68
									 2.3 474.13 1.61 473.03 ZM1.57 469.08 L1.57 470.45 C1.57 471.26 1.83 471.95 2.36 472.51 C2.88
									 473.07 3.55 473.36 4.36 473.36 C5.31 473.36 6.06 472.99 6.6 472.27 C7.14 471.54 7.41 470.53
									 7.41 469.23 C7.41 468.14 7.16 467.29 6.65 466.67 C6.15 466.05 5.46 465.74 4.6 465.74 C3.69 465.74
									 2.96 466.06 2.4 466.69 C1.85 467.32 1.57 468.12 1.57 469.08 Z" class="st23"/>
					</g>
					<g id="shape141-210" transform="translate(60.4129,-4.2784)">
						<title>Sheet.141</title>
						<path d="M7.74 478.73 L6.17 478.73 L6.17 477.19 L6.14 477.19 C5.45 478.37 4.45 478.96 3.12 478.96 C2.14 478.96
									 1.38 478.7 0.83 478.18 C0.28 477.66 0 476.98 0 476.12 C0 474.29 1.08 473.22 3.24 472.92 L6.18
									 472.51 C6.18 470.85 5.5 470.01 4.16 470.01 C2.98 470.01 1.91 470.42 0.96 471.22 L0.96 469.61
									 C1.92 469 3.03 468.69 4.29 468.69 C6.59 468.69 7.75 469.91 7.75 472.35 L7.75 478.73 L7.74 478.73
									 ZM6.17 473.77 L3.81 474.09 C3.08 474.19 2.53 474.38 2.16 474.63 C1.79 474.89 1.61 475.35 1.61
									 476.01 C1.61 476.49 1.78 476.88 2.12 477.18 C2.46 477.48 2.92 477.63 3.48 477.63 C4.26 477.63
									 4.91 477.36 5.41 476.82 C5.92 476.27 6.17 475.58 6.17 474.74 L6.17 473.77 Z" class="st23"/>
					</g>
					<g id="shape142-212" transform="translate(70.387,-4.2784)">
						<title>Sheet.142</title>
						<path d="M7.35 478.28 C6.6 478.73 5.71 478.96 4.67 478.96 C3.27 478.96 2.15 478.5 1.29 477.59 C0.43 476.68
									 0 475.5 0 474.05 C0 472.44 0.46 471.14 1.39 470.16 C2.31 469.18 3.55 468.69 5.09 468.69 C5.95
									 468.69 6.72 468.85 7.37 469.17 L7.37 470.78 C6.64 470.27 5.87 470.01 5.04 470.01 C4.03 470.01
									 3.21 470.37 2.57 471.09 C1.93 471.81 1.61 472.75 1.61 473.92 C1.61 475.07 1.91 475.97 2.51 476.64
									 C3.12 477.3 3.93 477.63 4.94 477.63 C5.8 477.63 6.6 477.35 7.35 476.78 L7.35 478.28 L7.35 478.28
									 Z" class="st23"/>
					</g>
					<g id="shape143-214" transform="translate(79.2323,-4.277)">
						<title>Sheet.143</title>
						<path d="M8.55 474.22 L1.63 474.22 C1.65 475.31 1.95 476.15 2.51 476.74 C3.07 477.34 3.84 477.63 4.82 477.63
									 C5.93 477.63 6.94 477.27 7.87 476.54 L7.87 478.02 C7.01 478.64 5.87 478.96 4.45 478.96 C3.07
									 478.96 1.98 478.51 1.19 477.62 C0.4 476.73 0 475.48 0 473.86 C0 472.34 0.43 471.09 1.3 470.13
									 C2.16 469.17 3.24 468.69 4.52 468.69 C5.8 468.69 6.79 469.11 7.5 469.94 C8.2 470.77 8.55 471.92
									 8.55 473.39 L8.55 474.22 ZM6.94 472.89 C6.94 471.98 6.72 471.27 6.29 470.77 C5.86 470.27 5.26
									 470.01 4.49 470.01 C3.75 470.01 3.12 470.28 2.6 470.81 C2.09 471.34 1.77 472.03 1.65 472.88
									 L6.94 472.88 L6.94 472.89 Z" class="st23"/>
					</g>
				</g>
				<g id="shape144-216" transform="translate(174.76,-0.187661)">
					<title>Sheet.144</title>
					<path d="M7.95 474.83 C7.95 475.45 7.83 476.01 7.6 476.52 C7.36 477.03 7.03 477.46 6.61 477.82 C6.19 478.18 5.68
								 478.46 5.08 478.66 C4.49 478.86 3.84 478.96 3.12 478.96 C1.81 478.96 0.77 478.71 0 478.21 L0 476.53
								 C0.93 477.25 1.98 477.62 3.18 477.62 C3.66 477.62 4.09 477.56 4.48 477.43 C4.86 477.31 5.19 477.14
								 5.47 476.91 C5.75 476.68 5.96 476.4 6.11 476.07 C6.26 475.75 6.34 475.38 6.34 474.97 C6.34 473.18
								 5.06 472.28 2.51 472.28 L1.37 472.28 L1.37 470.95 L2.45 470.95 C4.71 470.95 5.84 470.11 5.84 468.43
								 C5.84 466.87 4.98 466.09 3.26 466.09 C2.29 466.09 1.38 466.41 0.53 467.07 L0.53 465.54 C1.4 465.02
								 2.44 464.76 3.65 464.76 C4.22 464.76 4.74 464.84 5.21 465 C5.67 465.16 6.08 465.38 6.41 465.67 C6.74
								 465.96 6.99 466.3 7.18 466.7 C7.36 467.1 7.45 467.55 7.45 468.03 C7.45 469.84 6.54 471 4.71 471.52
								 L4.71 471.55 C5.18 471.61 5.61 471.72 6 471.89 C6.4 472.07 6.74 472.3 7.03 472.58 C7.31 472.86 7.54
								 473.19 7.7 473.57 C7.86 473.95 7.95 474.37 7.95 474.83 Z" class="st23"/>
				</g>
				<g id="shape145-218" transform="translate(213.644,-0.42854)">
					<title>Sheet.145</title>
					<path d="M6.35 468.83 C6.35 468.41 6.28 468.04 6.15 467.73 C6.02 467.42 5.84 467.15 5.62 466.95 C5.39 466.74
								 5.12 466.58 4.82 466.48 C4.51 466.38 4.18 466.33 3.82 466.33 C3.51 466.33 3.21 466.37 2.92 466.45
								 C2.63 466.54 2.34 466.65 2.06 466.8 C1.79 466.95 1.52 467.12 1.26 467.33 C1 467.53 0.76 467.76 0.54
								 468 L0.54 466.32 C0.98 465.89 1.47 465.57 2.02 465.34 C2.56 465.11 3.23 465 4.01 465 C4.57 465 5.09
								 465.08 5.57 465.24 C6.05 465.4 6.46 465.64 6.82 465.95 C7.17 466.27 7.44 466.65 7.64 467.11 C7.84
								 467.57 7.94 468.1 7.94 468.69 C7.94 469.23 7.88 469.73 7.76 470.17 C7.63 470.61 7.45 471.02 7.19
								 471.41 C6.94 471.8 6.62 472.17 6.24 472.53 C5.86 472.89 5.41 473.25 4.89 473.62 C4.25 474.08 3.72
								 474.48 3.3 474.8 C2.88 475.13 2.55 475.43 2.3 475.72 C2.06 476 1.89 476.28 1.79 476.57 C1.69 476.85
								 1.64 477.18 1.64 477.55 L8.47 477.55 L8.47 478.96 L0 478.96 L0 478.28 C0 477.69 0.06 477.17 0.19
								 476.73 C0.32 476.28 0.53 475.86 0.82 475.45 C1.12 475.05 1.5 474.65 1.98 474.25 C2.45 473.85 3.03
								 473.39 3.73 472.89 C4.22 472.53 4.64 472.19 4.97 471.86 C5.31 471.54 5.58 471.21 5.78 470.89 C5.99
								 470.56 6.13 470.23 6.22 469.9 C6.3 469.56 6.35 469.21 6.35 468.83 Z" class="st23"/>
				</g>
				<g id="shape146-220" transform="translate(253.802,-0.42714)">
					<title>Sheet.146</title>
					<path d="M4.75 478.96 L3.18 478.96 L3.18 467.09 C3.06 467.22 2.88 467.36 2.65 467.51 C2.41 467.67 2.15 467.82
								 1.86 467.98 C1.57 468.13 1.26 468.27 0.94 468.41 C0.62 468.54 0.31 468.65 0 468.72 L0 467.13 C0.34
								 467.04 0.71 466.91 1.1 466.75 C1.48 466.58 1.86 466.4 2.24 466.2 C2.61 466 2.96 465.79 3.29 465.57
								 C3.62 465.35 3.91 465.13 4.15 464.92 L4.75 464.92 L4.75 478.96 Z" class="st23"/>
				</g>
			</g>
		</g>
		<g id="shape158-222" transform="translate(496.4,-86.0561)">
			<title>Sheet.158</title>
			<desc>Slot array</desc>
			<rect x="0" y="442.957" width="90" height="36" class="st24"/>
			<text x="10.03" y="466.36" class="st25">Slot array</text>		</g>
		<g id="shape160-225" transform="translate(86.9005,-439.556)">
			<title>Sheet.160</title>
			<desc>Data page</desc>
			<rect x="0" y="458.957" width="378" height="20" class="st24"/>
			<text x="138.62" y="476.16" class="st26">Data page</text>		</g>
	</g>
</svg>
